%TF.GenerationSoftware,KiCad,Pcbnew,9.0.7-9.0.7~ubuntu24.04.1*%
%TF.CreationDate,2026-01-04T03:25:52-05:00*%
%TF.ProjectId,Wideband-LNA,57696465-6261-46e6-942d-4c4e412e6b69,rev?*%
%TF.SameCoordinates,Original*%
%TF.FileFunction,Soldermask,Top*%
%TF.FilePolarity,Negative*%
%FSLAX46Y46*%
G04 Gerber Fmt 4.6, Leading zero omitted, Abs format (unit mm)*
G04 Created by KiCad (PCBNEW 9.0.7-9.0.7~ubuntu24.04.1) date 2026-01-04 03:25:52*
%MOMM*%
%LPD*%
G01*
G04 APERTURE LIST*
G04 Aperture macros list*
%AMRoundRect*
0 Rectangle with rounded corners*
0 $1 Rounding radius*
0 $2 $3 $4 $5 $6 $7 $8 $9 X,Y pos of 4 corners*
0 Add a 4 corners polygon primitive as box body*
4,1,4,$2,$3,$4,$5,$6,$7,$8,$9,$2,$3,0*
0 Add four circle primitives for the rounded corners*
1,1,$1+$1,$2,$3*
1,1,$1+$1,$4,$5*
1,1,$1+$1,$6,$7*
1,1,$1+$1,$8,$9*
0 Add four rect primitives between the rounded corners*
20,1,$1+$1,$2,$3,$4,$5,0*
20,1,$1+$1,$4,$5,$6,$7,0*
20,1,$1+$1,$6,$7,$8,$9,0*
20,1,$1+$1,$8,$9,$2,$3,0*%
G04 Aperture macros list end*
%ADD10RoundRect,0.225000X0.250000X-0.225000X0.250000X0.225000X-0.250000X0.225000X-0.250000X-0.225000X0*%
%ADD11RoundRect,0.200000X-0.200000X-0.275000X0.200000X-0.275000X0.200000X0.275000X-0.200000X0.275000X0*%
%ADD12RoundRect,0.218750X0.256250X-0.218750X0.256250X0.218750X-0.256250X0.218750X-0.256250X-0.218750X0*%
%ADD13RoundRect,0.200000X-0.275000X0.200000X-0.275000X-0.200000X0.275000X-0.200000X0.275000X0.200000X0*%
%ADD14C,3.800000*%
%ADD15RoundRect,0.225000X0.225000X0.250000X-0.225000X0.250000X-0.225000X-0.250000X0.225000X-0.250000X0*%
%ADD16R,1.000000X1.000000*%
%ADD17RoundRect,0.150000X0.150000X0.200000X-0.150000X0.200000X-0.150000X-0.200000X0.150000X-0.200000X0*%
%ADD18RoundRect,0.250000X-0.350000X0.850000X-0.350000X-0.850000X0.350000X-0.850000X0.350000X0.850000X0*%
%ADD19RoundRect,0.249997X-2.650003X2.950003X-2.650003X-2.950003X2.650003X-2.950003X2.650003X2.950003X0*%
%ADD20RoundRect,0.225000X-0.250000X0.225000X-0.250000X-0.225000X0.250000X-0.225000X0.250000X0.225000X0*%
%ADD21RoundRect,0.225000X-0.225000X-0.250000X0.225000X-0.250000X0.225000X0.250000X-0.225000X0.250000X0*%
%ADD22RoundRect,0.062500X-0.287500X-0.062500X0.287500X-0.062500X0.287500X0.062500X-0.287500X0.062500X0*%
%ADD23R,0.800000X1.600000*%
%ADD24RoundRect,0.218750X0.218750X0.256250X-0.218750X0.256250X-0.218750X-0.256250X0.218750X-0.256250X0*%
%ADD25RoundRect,0.218750X-0.218750X-0.256250X0.218750X-0.256250X0.218750X0.256250X-0.218750X0.256250X0*%
G04 APERTURE END LIST*
D10*
%TO.C,C1*%
X-4633251Y6036279D03*
X-4633251Y7586279D03*
%TD*%
D11*
%TO.C,R8*%
X-3171249Y6796279D03*
X-1521249Y6796279D03*
%TD*%
D10*
%TO.C,C2*%
X-10340000Y1822371D03*
X-10340000Y3372371D03*
%TD*%
D12*
%TO.C,L2*%
X-4664845Y2798779D03*
X-4664845Y4373779D03*
%TD*%
D13*
%TO.C,R2*%
X-3130000Y5336279D03*
X-3130000Y3686279D03*
%TD*%
D14*
%TO.C,H3*%
X1900000Y-6900000D03*
%TD*%
D10*
%TO.C,C10*%
X1840000Y-3415000D03*
X1840000Y-1865000D03*
%TD*%
D15*
%TO.C,C3*%
X-6165000Y3980000D03*
X-7715000Y3980000D03*
%TD*%
D16*
%TO.C,J1*%
X-10300000Y0D03*
%TD*%
D17*
%TO.C,D1*%
X-7820000Y2530000D03*
X-6420000Y2530000D03*
%TD*%
D18*
%TO.C,U2*%
X-3265000Y415000D03*
D19*
X-5545000Y-5885000D03*
D18*
X-7825000Y415000D03*
%TD*%
D13*
%TO.C,R7*%
X-1606859Y5336279D03*
X-1606859Y3686279D03*
%TD*%
D20*
%TO.C,C9*%
X320000Y3325000D03*
X320000Y1775000D03*
%TD*%
%TO.C,C4*%
X-1250000Y-1890000D03*
X-1250000Y-3440000D03*
%TD*%
D21*
%TO.C,C8*%
X-3140511Y8336279D03*
X-1590511Y8336279D03*
%TD*%
D22*
%TO.C,U1*%
X-8370000Y7082500D03*
X-8370000Y6582500D03*
X-8370000Y6082500D03*
X-8370000Y5582500D03*
X-6370000Y5582500D03*
X-6370000Y6082500D03*
X-6370000Y6582500D03*
X-6370000Y7082500D03*
D23*
X-7370000Y6332500D03*
%TD*%
D20*
%TO.C,C5*%
X-9830000Y-3215000D03*
X-9830000Y-4765000D03*
%TD*%
D24*
%TO.C,L5*%
X-11795000Y1950000D03*
X-13370000Y1950000D03*
%TD*%
D16*
%TO.C,J2*%
X300000Y0D03*
%TD*%
D25*
%TO.C,FB1*%
X-12900000Y-3360000D03*
X-11325000Y-3360000D03*
%TD*%
D14*
%TO.C,H2*%
X1900000Y6900000D03*
%TD*%
D12*
%TO.C,L1*%
X310000Y-3432500D03*
X310000Y-1857500D03*
%TD*%
D16*
%TO.C,J3*%
X-12250000Y-5140000D03*
%TD*%
D14*
%TO.C,H1*%
X-11900000Y6900000D03*
%TD*%
G36*
X-11332488Y-1169685D02*
G01*
X-11286733Y-1222489D01*
X-11275530Y-1274873D01*
X-11283784Y-2446873D01*
X-11303940Y-2513772D01*
X-11357065Y-2559154D01*
X-11407781Y-2570000D01*
X-13979059Y-2570000D01*
X-14046098Y-2550315D01*
X-14091853Y-2497511D01*
X-14103059Y-2446152D01*
X-14104499Y-1274152D01*
X-14084897Y-1207089D01*
X-14032149Y-1161269D01*
X-13980499Y-1150000D01*
X-11399527Y-1150000D01*
X-11332488Y-1169685D01*
G37*
G36*
X4038388Y-1153995D02*
G01*
X4084143Y-1206799D01*
X4095349Y-1258310D01*
X4095349Y-2790310D01*
X4075664Y-2857349D01*
X4022860Y-2903104D01*
X3971349Y-2914310D01*
X2730277Y-2914310D01*
X2663238Y-2894625D01*
X2617483Y-2841821D01*
X2606280Y-2791128D01*
X2596173Y-1259128D01*
X2615415Y-1191960D01*
X2667916Y-1145858D01*
X2720170Y-1134310D01*
X3971349Y-1134310D01*
X4038388Y-1153995D01*
G37*
G36*
X3943010Y2951698D02*
G01*
X4009935Y2931628D01*
X4055386Y2878562D01*
X4066297Y2827700D01*
X4066297Y1295709D01*
X4046612Y1228670D01*
X3993808Y1182915D01*
X3941580Y1171711D01*
X2460512Y1180281D01*
X2393587Y1200353D01*
X2348138Y1253421D01*
X2337232Y1303461D01*
X2327125Y2835452D01*
X2346367Y2902620D01*
X2398868Y2948722D01*
X2451835Y2960268D01*
X3943010Y2951698D01*
G37*
M02*
