M48
; DRILL file {KiCad 9.0.7-9.0.7~ubuntu24.04.1} date 2026-01-06T12:19:45-0500
; FORMAT={-:-/ absolute / inch / decimal}
; #@! TF.CreationDate,2026-01-06T12:19:45-05:00
; #@! TF.GenerationSoftware,Kicad,Pcbnew,9.0.7-9.0.7~ubuntu24.04.1
; #@! TF.FileFunction,Plated,1,4,PTH
FMAT,2
INCH
; #@! TA.AperFunction,Plated,PTH,ViaDrill
T1C0.0118
; #@! TA.AperFunction,Plated,PTH,ComponentDrill
T2C0.0866
%
G90
G05
T1
X-0.5409Y0.185
X-0.5409Y0.1421
X-0.5409Y-0.0579
X-0.5406Y-0.2039
X-0.5157Y0.1132
X-0.502Y-0.0579
X-0.4787Y0.1154
X-0.4646Y-0.0571
X-0.4488Y0.1447
X-0.4476Y0.1154
X-0.44Y0.1772
X-0.4252Y-0.0469
X-0.4183Y-0.1939
X-0.3909Y-0.0465
X-0.372Y0.2579
X-0.3671Y0.1781
X-0.3671Y0.1443
X-0.3671Y0.1116
X-0.3667Y0.0789
X-0.3626Y0.348
X-0.3557Y-0.0467
X-0.3553Y0.0089
X-0.3553Y-0.0187
X-0.3549Y0.0364
X-0.3287Y0.1784
X-0.3262Y0.2792
X-0.2902Y0.348
X-0.2896Y0.2637
X-0.2894Y0.3012
X-0.2894Y0.2286
X-0.2894Y0.1964
X-0.2894Y0.1545
X-0.2785Y0.1181
X-0.263Y-0.2337
X-0.2626Y-0.1225
X-0.2626Y-0.1766
X-0.2626Y-0.292
X-0.2626Y-0.3459
X-0.2502Y0.1788
X-0.2498Y0.2792
X-0.2175Y0.3484
X-0.2087Y-0.2323
X-0.2083Y-0.1211
X-0.2083Y-0.1752
X-0.2083Y-0.2906
X-0.2083Y-0.3444
X-0.1811Y-0.0059
X-0.1545Y-0.2317
X-0.1541Y-0.1205
X-0.1541Y-0.1746
X-0.1541Y-0.29
X-0.1541Y-0.3438
X-0.1232Y0.1181
X-0.1014Y-0.231
X-0.101Y-0.1197
X-0.101Y-0.1739
X-0.101Y-0.2892
X-0.101Y-0.3431
X-0.0738Y0.0896
X-0.0633Y0.1171
X-0.0331Y0.0244
X-0.0331Y-0.0031
X-0.0323Y-0.0311
X-0.0264Y0.1894
X-0.0264Y0.1618
X-0.0256Y0.1339
X-0.0256Y0.1063
X-0.0256Y0.0787
X-0.0256Y0.05
X-0.0205Y-0.348
X-0.0193Y0.2634
X-0.0031Y0.3472
X0.0405Y-0.1478
X0.0504Y0.1787
X0.0504Y0.1425
X0.0504Y0.1035
X0.0606Y0.0563
X0.1047Y0.0559
X0.1122Y-0.0591
X0.1476Y-0.0587
X0.1488Y0.1878
X0.1488Y0.0567
X0.1504Y-0.1846
T2
X-0.4685Y0.2717
X0.0748Y0.2717
X0.0748Y-0.2717
M30
