M48
; DRILL file {KiCad 9.0.7-9.0.7~ubuntu24.04.1} date 2026-01-04T03:25:52-0500
; FORMAT={-:-/ absolute / inch / decimal}
; #@! TF.CreationDate,2026-01-04T03:25:52-05:00
; #@! TF.GenerationSoftware,Kicad,Pcbnew,9.0.7-9.0.7~ubuntu24.04.1
; #@! TF.FileFunction,Plated,1,4,PTH
FMAT,2
INCH
; #@! TA.AperFunction,Plated,PTH,ViaDrill
T1C0.0118
; #@! TA.AperFunction,Plated,PTH,ComponentDrill
T2C0.0866
%
G90
G05
T1
X-0.5409Y0.185
X-0.5409Y0.1421
X-0.5409Y-0.0579
X-0.5406Y-0.2039
X-0.5264Y0.1126
X-0.502Y-0.0579
X-0.4787Y0.1154
X-0.4606Y-0.0575
X-0.4476Y0.1705
X-0.4476Y0.1429
X-0.4476Y0.1154
X-0.4252Y-0.0469
X-0.3909Y-0.0465
X-0.3677Y0.198
X-0.3677Y0.1677
X-0.3677Y0.1339
X-0.3677Y0.1012
X-0.3673Y0.0685
X-0.3626Y0.348
X-0.3591Y-0.0453
X-0.3587Y0.0102
X-0.3587Y-0.0173
X-0.3583Y0.0378
X-0.3295Y0.1994
X-0.327Y0.3002
X-0.3085Y-0.231
X-0.3081Y-0.125
X-0.3081Y-0.1775
X-0.3081Y-0.2893
X-0.3081Y-0.3432
X-0.3041Y0.1992
X-0.2904Y0.2846
X-0.2902Y0.348
X-0.2902Y0.3169
X-0.2902Y0.2496
X-0.2902Y0.2173
X-0.2766Y0.1992
X-0.251Y0.1998
X-0.2506Y0.3002
X-0.2394Y0.3484
X-0.2232Y-0.2312
X-0.2228Y-0.1252
X-0.2228Y-0.1776
X-0.2228Y-0.2894
X-0.2228Y-0.3433
X-0.1843Y0.0563
X-0.147Y-0.2306
X-0.1467Y-0.1246
X-0.1467Y-0.177
X-0.1467Y-0.2888
X-0.1467Y-0.3427
X-0.1232Y0.1138
X-0.0633Y0.113
X-0.0492Y-0.1677
X-0.0331Y0.0244
X-0.0331Y-0.0031
X-0.0323Y-0.0311
X-0.0264Y0.1894
X-0.0264Y0.1618
X-0.0256Y0.1339
X-0.0256Y0.1063
X-0.0256Y0.0787
X-0.0256Y0.05
X-0.0205Y-0.348
X-0.0193Y0.2634
X-0.0031Y0.3472
X0.0504Y0.1787
X0.0504Y0.1425
X0.0504Y0.1035
X0.0606Y0.0563
X0.1047Y0.0559
X0.1065Y-0.0734
X0.1476Y-0.0587
X0.1488Y0.1878
X0.1488Y0.0567
X0.1504Y-0.1846
T2
X-0.4685Y0.2717
X0.0748Y0.2717
X0.0748Y-0.2717
M30
