%TF.GenerationSoftware,KiCad,Pcbnew,9.0.7-9.0.7~ubuntu24.04.1*%
%TF.CreationDate,2026-01-06T12:19:45-05:00*%
%TF.ProjectId,Wideband-LNA,57696465-6261-46e6-942d-4c4e412e6b69,rev?*%
%TF.SameCoordinates,Original*%
%TF.FileFunction,Legend,Top*%
%TF.FilePolarity,Positive*%
%FSLAX46Y46*%
G04 Gerber Fmt 4.6, Leading zero omitted, Abs format (unit mm)*
G04 Created by KiCad (PCBNEW 9.0.7-9.0.7~ubuntu24.04.1) date 2026-01-06 12:19:45*
%MOMM*%
%LPD*%
G01*
G04 APERTURE LIST*
G04 Aperture macros list*
%AMRoundRect*
0 Rectangle with rounded corners*
0 $1 Rounding radius*
0 $2 $3 $4 $5 $6 $7 $8 $9 X,Y pos of 4 corners*
0 Add a 4 corners polygon primitive as box body*
4,1,4,$2,$3,$4,$5,$6,$7,$8,$9,$2,$3,0*
0 Add four circle primitives for the rounded corners*
1,1,$1+$1,$2,$3*
1,1,$1+$1,$4,$5*
1,1,$1+$1,$6,$7*
1,1,$1+$1,$8,$9*
0 Add four rect primitives between the rounded corners*
20,1,$1+$1,$2,$3,$4,$5,0*
20,1,$1+$1,$4,$5,$6,$7,0*
20,1,$1+$1,$6,$7,$8,$9,0*
20,1,$1+$1,$8,$9,$2,$3,0*%
G04 Aperture macros list end*
%ADD10C,0.120000*%
%ADD11RoundRect,0.225000X0.250000X-0.225000X0.250000X0.225000X-0.250000X0.225000X-0.250000X-0.225000X0*%
%ADD12RoundRect,0.200000X-0.200000X-0.275000X0.200000X-0.275000X0.200000X0.275000X-0.200000X0.275000X0*%
%ADD13RoundRect,0.218750X0.256250X-0.218750X0.256250X0.218750X-0.256250X0.218750X-0.256250X-0.218750X0*%
%ADD14RoundRect,0.200000X-0.275000X0.200000X-0.275000X-0.200000X0.275000X-0.200000X0.275000X0.200000X0*%
%ADD15RoundRect,0.250000X-0.350000X0.850000X-0.350000X-0.850000X0.350000X-0.850000X0.350000X0.850000X0*%
%ADD16RoundRect,0.249997X-2.650003X2.950003X-2.650003X-2.950003X2.650003X-2.950003X2.650003X2.950003X0*%
%ADD17C,3.800000*%
%ADD18RoundRect,0.140000X0.140000X0.170000X-0.140000X0.170000X-0.140000X-0.170000X0.140000X-0.170000X0*%
%ADD19RoundRect,0.140000X-0.140000X-0.170000X0.140000X-0.170000X0.140000X0.170000X-0.140000X0.170000X0*%
%ADD20R,1.000000X1.000000*%
%ADD21RoundRect,0.150000X0.200000X-0.150000X0.200000X0.150000X-0.200000X0.150000X-0.200000X-0.150000X0*%
%ADD22RoundRect,0.225000X-0.250000X0.225000X-0.250000X-0.225000X0.250000X-0.225000X0.250000X0.225000X0*%
%ADD23RoundRect,0.225000X-0.225000X-0.250000X0.225000X-0.250000X0.225000X0.250000X-0.225000X0.250000X0*%
%ADD24RoundRect,0.140000X-0.170000X0.140000X-0.170000X-0.140000X0.170000X-0.140000X0.170000X0.140000X0*%
%ADD25RoundRect,0.062500X-0.287500X-0.062500X0.287500X-0.062500X0.287500X0.062500X-0.287500X0.062500X0*%
%ADD26R,0.800000X1.600000*%
%ADD27RoundRect,0.218750X0.218750X0.256250X-0.218750X0.256250X-0.218750X-0.256250X0.218750X-0.256250X0*%
%ADD28RoundRect,0.218750X-0.218750X-0.256250X0.218750X-0.256250X0.218750X0.256250X-0.218750X0.256250X0*%
G04 APERTURE END LIST*
D10*
%TO.C,C8*%
X-5143251Y6670699D02*
X-5143251Y6951859D01*
X-4123251Y6670699D02*
X-4123251Y6951859D01*
%TO.C,R1*%
X-2583507Y7318779D02*
X-2108991Y7318779D01*
X-2583507Y6273779D02*
X-2108991Y6273779D01*
%TO.C,C7*%
X-10850000Y2456791D02*
X-10850000Y2737951D01*
X-9830000Y2456791D02*
X-9830000Y2737951D01*
%TO.C,L1*%
X-5134805Y3627221D02*
X-5134805Y3952779D01*
X-4114805Y3627221D02*
X-4114805Y3952779D01*
%TO.C,R2*%
X-3652500Y4748537D02*
X-3652500Y4274021D01*
X-2607500Y4748537D02*
X-2607500Y4274021D01*
%TO.C,U1*%
X-8025000Y-1315000D02*
X-7755000Y-1315000D01*
X-8025000Y-7735000D02*
X-8025000Y-1315000D01*
X-1125000Y-1315000D02*
X-1395000Y-1315000D01*
X-1125000Y-7735000D02*
X-1125000Y-1315000D01*
X-965000Y75000D02*
X-1435000Y415000D01*
X-965000Y755000D01*
X-965000Y75000D01*
G36*
X-965000Y75000D02*
G01*
X-1435000Y415000D01*
X-965000Y755000D01*
X-965000Y75000D01*
G37*
%TO.C,C5*%
X1582836Y-2740000D02*
X1367164Y-2740000D01*
X1582836Y-3460000D02*
X1367164Y-3460000D01*
%TO.C,C4*%
X-3057836Y2635000D02*
X-2842164Y2635000D01*
X-3057836Y1915000D02*
X-2842164Y1915000D01*
%TO.C,J2*%
X-11000000Y700000D02*
X-9600000Y700000D01*
X-11000000Y-700000D02*
X-11000000Y700000D01*
X-9600000Y700000D02*
X-9600000Y-700000D01*
X-9600000Y-700000D02*
X-11000000Y-700000D01*
%TO.C,D2*%
X-825000Y-4675000D02*
X-825000Y-2715000D01*
X375000Y-2715000D02*
X-825000Y-2715000D01*
X375000Y-4675000D02*
X375000Y-2715000D01*
%TO.C,R3*%
X-2129359Y4748537D02*
X-2129359Y4274021D01*
X-1084359Y4748537D02*
X-1084359Y4274021D01*
%TO.C,C9*%
X-190000Y2690580D02*
X-190000Y2409420D01*
X830000Y2690580D02*
X830000Y2409420D01*
%TO.C,C3*%
X-6492164Y2635000D02*
X-6707836Y2635000D01*
X-6492164Y1915000D02*
X-6707836Y1915000D01*
%TO.C,C6*%
X-2506091Y8846279D02*
X-2224931Y8846279D01*
X-2506091Y7826279D02*
X-2224931Y7826279D01*
%TO.C,C1*%
X-10985000Y-3717164D02*
X-10985000Y-3932836D01*
X-10265000Y-3717164D02*
X-10265000Y-3932836D01*
%TO.C,U2*%
X-8055568Y6935000D02*
X-6240000Y6935000D01*
X-6240000Y4665000D02*
X-8460000Y4665000D01*
X-8350000Y6940000D02*
X-8490000Y7130000D01*
X-8210000Y7130000D01*
X-8350000Y6940000D01*
G36*
X-8350000Y6940000D02*
G01*
X-8490000Y7130000D01*
X-8210000Y7130000D01*
X-8350000Y6940000D01*
G37*
%TO.C,C2*%
X-9335000Y-3159420D02*
X-9335000Y-3440580D01*
X-8315000Y-3159420D02*
X-8315000Y-3440580D01*
%TO.C,L3*%
X-12419721Y2460000D02*
X-12745279Y2460000D01*
X-12419721Y1440000D02*
X-12745279Y1440000D01*
%TO.C,J3*%
X-400000Y700000D02*
X1000000Y700000D01*
X-400000Y-700000D02*
X-400000Y700000D01*
X1000000Y700000D02*
X1000000Y-700000D01*
X1000000Y-700000D02*
X-400000Y-700000D01*
%TO.C,FB1*%
X-12762779Y-2840000D02*
X-12437221Y-2840000D01*
X-12762779Y-3860000D02*
X-12437221Y-3860000D01*
%TO.C,L2*%
X1225279Y-1340000D02*
X899721Y-1340000D01*
X1225279Y-2360000D02*
X899721Y-2360000D01*
%TO.C,D1*%
X-9425000Y-6850000D02*
X-9425000Y-4890000D01*
X-8225000Y-4890000D02*
X-9425000Y-4890000D01*
X-8225000Y-6850000D02*
X-8225000Y-4890000D01*
%TO.C,J1*%
X-12950000Y-4440000D02*
X-11550000Y-4440000D01*
X-12950000Y-5840000D02*
X-12950000Y-4440000D01*
X-11550000Y-4440000D02*
X-11550000Y-5840000D01*
X-11550000Y-5840000D02*
X-12950000Y-5840000D01*
%TD*%
%LPC*%
D11*
%TO.C,C8*%
X-4633251Y6036279D03*
X-4633251Y7586279D03*
%TD*%
D12*
%TO.C,R1*%
X-3171249Y6796279D03*
X-1521249Y6796279D03*
%TD*%
D11*
%TO.C,C7*%
X-10340000Y1822371D03*
X-10340000Y3372371D03*
%TD*%
D13*
%TO.C,L1*%
X-4624805Y3002500D03*
X-4624805Y4577500D03*
%TD*%
D14*
%TO.C,R2*%
X-3130000Y5336279D03*
X-3130000Y3686279D03*
%TD*%
D15*
%TO.C,U1*%
X-2295000Y415000D03*
D16*
X-4575000Y-5885000D03*
D15*
X-6855000Y415000D03*
%TD*%
D17*
%TO.C,H3*%
X1900000Y-6900000D03*
%TD*%
D18*
%TO.C,C5*%
X1955000Y-3100000D03*
X995000Y-3100000D03*
%TD*%
D19*
%TO.C,C4*%
X-3430000Y2275000D03*
X-2470000Y2275000D03*
%TD*%
D20*
%TO.C,J2*%
X-10300000Y0D03*
%TD*%
D21*
%TO.C,D2*%
X-225000Y-3275000D03*
X-225000Y-4675000D03*
%TD*%
D14*
%TO.C,R3*%
X-1606859Y5336279D03*
X-1606859Y3686279D03*
%TD*%
D22*
%TO.C,C9*%
X320000Y3325000D03*
X320000Y1775000D03*
%TD*%
D18*
%TO.C,C3*%
X-6120000Y2275000D03*
X-7080000Y2275000D03*
%TD*%
D23*
%TO.C,C6*%
X-3140511Y8336279D03*
X-1590511Y8336279D03*
%TD*%
D24*
%TO.C,C1*%
X-10625000Y-3345000D03*
X-10625000Y-4305000D03*
%TD*%
D25*
%TO.C,U2*%
X-8350000Y6550000D03*
X-8350000Y6050000D03*
X-8350000Y5550000D03*
X-8350000Y5050000D03*
X-6350000Y5050000D03*
X-6350000Y5550000D03*
X-6350000Y6050000D03*
X-6350000Y6550000D03*
D26*
X-7350000Y5800000D03*
%TD*%
D22*
%TO.C,C2*%
X-8825000Y-2525000D03*
X-8825000Y-4075000D03*
%TD*%
D27*
%TO.C,L3*%
X-11795000Y1950000D03*
X-13370000Y1950000D03*
%TD*%
D20*
%TO.C,J3*%
X300000Y0D03*
%TD*%
D28*
%TO.C,FB1*%
X-13387500Y-3350000D03*
X-11812500Y-3350000D03*
%TD*%
D17*
%TO.C,H2*%
X1900000Y6900000D03*
%TD*%
D27*
%TO.C,L2*%
X1850000Y-1850000D03*
X275000Y-1850000D03*
%TD*%
D21*
%TO.C,D1*%
X-8825000Y-5450000D03*
X-8825000Y-6850000D03*
%TD*%
D20*
%TO.C,J1*%
X-12250000Y-5140000D03*
%TD*%
D17*
%TO.C,H1*%
X-11900000Y6900000D03*
%TD*%
G36*
X-11332488Y-1169685D02*
G01*
X-11286733Y-1222489D01*
X-11275530Y-1274873D01*
X-11283784Y-2446873D01*
X-11303940Y-2513772D01*
X-11357065Y-2559154D01*
X-11407781Y-2570000D01*
X-13979059Y-2570000D01*
X-14046098Y-2550315D01*
X-14091853Y-2497511D01*
X-14103059Y-2446152D01*
X-14104499Y-1274152D01*
X-14084897Y-1207089D01*
X-14032149Y-1161269D01*
X-13980499Y-1150000D01*
X-11399527Y-1150000D01*
X-11332488Y-1169685D01*
G37*
G36*
X4038388Y-1153995D02*
G01*
X4084143Y-1206799D01*
X4095349Y-1258310D01*
X4095349Y-2790310D01*
X4075664Y-2857349D01*
X4022860Y-2903104D01*
X3971349Y-2914310D01*
X2730277Y-2914310D01*
X2663238Y-2894625D01*
X2617483Y-2841821D01*
X2606280Y-2791128D01*
X2596173Y-1259128D01*
X2615415Y-1191960D01*
X2667916Y-1145858D01*
X2720170Y-1134310D01*
X3971349Y-1134310D01*
X4038388Y-1153995D01*
G37*
G36*
X3943010Y2951698D02*
G01*
X4009935Y2931628D01*
X4055386Y2878562D01*
X4066297Y2827700D01*
X4066297Y1295709D01*
X4046612Y1228670D01*
X3993808Y1182915D01*
X3941580Y1171711D01*
X2460512Y1180281D01*
X2393587Y1200353D01*
X2348138Y1253421D01*
X2337232Y1303461D01*
X2327125Y2835452D01*
X2346367Y2902620D01*
X2398868Y2948722D01*
X2451835Y2960268D01*
X3943010Y2951698D01*
G37*
%LPD*%
M02*
