%TF.GenerationSoftware,KiCad,Pcbnew,9.0.7-9.0.7~ubuntu24.04.1*%
%TF.CreationDate,2026-01-04T03:25:52-05:00*%
%TF.ProjectId,Wideband-LNA,57696465-6261-46e6-942d-4c4e412e6b69,rev?*%
%TF.SameCoordinates,Original*%
%TF.FileFunction,Copper,L1,Top*%
%TF.FilePolarity,Positive*%
%FSLAX46Y46*%
G04 Gerber Fmt 4.6, Leading zero omitted, Abs format (unit mm)*
G04 Created by KiCad (PCBNEW 9.0.7-9.0.7~ubuntu24.04.1) date 2026-01-04 03:25:52*
%MOMM*%
%LPD*%
G01*
G04 APERTURE LIST*
G04 Aperture macros list*
%AMRoundRect*
0 Rectangle with rounded corners*
0 $1 Rounding radius*
0 $2 $3 $4 $5 $6 $7 $8 $9 X,Y pos of 4 corners*
0 Add a 4 corners polygon primitive as box body*
4,1,4,$2,$3,$4,$5,$6,$7,$8,$9,$2,$3,0*
0 Add four circle primitives for the rounded corners*
1,1,$1+$1,$2,$3*
1,1,$1+$1,$4,$5*
1,1,$1+$1,$6,$7*
1,1,$1+$1,$8,$9*
0 Add four rect primitives between the rounded corners*
20,1,$1+$1,$2,$3,$4,$5,0*
20,1,$1+$1,$4,$5,$6,$7,0*
20,1,$1+$1,$6,$7,$8,$9,0*
20,1,$1+$1,$8,$9,$2,$3,0*%
G04 Aperture macros list end*
%ADD10C,0.158750*%
%TA.AperFunction,NonConductor*%
%ADD11C,0.158750*%
%TD*%
%TA.AperFunction,SMDPad,CuDef*%
%ADD12RoundRect,0.225000X0.250000X-0.225000X0.250000X0.225000X-0.250000X0.225000X-0.250000X-0.225000X0*%
%TD*%
%TA.AperFunction,SMDPad,CuDef*%
%ADD13RoundRect,0.200000X-0.200000X-0.275000X0.200000X-0.275000X0.200000X0.275000X-0.200000X0.275000X0*%
%TD*%
%TA.AperFunction,SMDPad,CuDef*%
%ADD14RoundRect,0.218750X0.256250X-0.218750X0.256250X0.218750X-0.256250X0.218750X-0.256250X-0.218750X0*%
%TD*%
%TA.AperFunction,SMDPad,CuDef*%
%ADD15RoundRect,0.200000X-0.275000X0.200000X-0.275000X-0.200000X0.275000X-0.200000X0.275000X0.200000X0*%
%TD*%
%TA.AperFunction,ComponentPad*%
%ADD16C,3.800000*%
%TD*%
%TA.AperFunction,SMDPad,CuDef*%
%ADD17RoundRect,0.225000X0.225000X0.250000X-0.225000X0.250000X-0.225000X-0.250000X0.225000X-0.250000X0*%
%TD*%
%TA.AperFunction,SMDPad,CuDef*%
%ADD18R,1.000000X1.000000*%
%TD*%
%TA.AperFunction,SMDPad,CuDef*%
%ADD19RoundRect,0.150000X0.150000X0.200000X-0.150000X0.200000X-0.150000X-0.200000X0.150000X-0.200000X0*%
%TD*%
%TA.AperFunction,SMDPad,CuDef*%
%ADD20RoundRect,0.250000X-0.350000X0.850000X-0.350000X-0.850000X0.350000X-0.850000X0.350000X0.850000X0*%
%TD*%
%TA.AperFunction,SMDPad,CuDef*%
%ADD21RoundRect,0.249997X-2.650003X2.950003X-2.650003X-2.950003X2.650003X-2.950003X2.650003X2.950003X0*%
%TD*%
%TA.AperFunction,SMDPad,CuDef*%
%ADD22RoundRect,0.225000X-0.250000X0.225000X-0.250000X-0.225000X0.250000X-0.225000X0.250000X0.225000X0*%
%TD*%
%TA.AperFunction,SMDPad,CuDef*%
%ADD23RoundRect,0.225000X-0.225000X-0.250000X0.225000X-0.250000X0.225000X0.250000X-0.225000X0.250000X0*%
%TD*%
%TA.AperFunction,SMDPad,CuDef*%
%ADD24RoundRect,0.062500X-0.287500X-0.062500X0.287500X-0.062500X0.287500X0.062500X-0.287500X0.062500X0*%
%TD*%
%TA.AperFunction,HeatsinkPad*%
%ADD25R,0.800000X1.600000*%
%TD*%
%TA.AperFunction,SMDPad,CuDef*%
%ADD26RoundRect,0.218750X0.218750X0.256250X-0.218750X0.256250X-0.218750X-0.256250X0.218750X-0.256250X0*%
%TD*%
%TA.AperFunction,SMDPad,CuDef*%
%ADD27RoundRect,0.218750X-0.218750X-0.256250X0.218750X-0.256250X0.218750X0.256250X-0.218750X0.256250X0*%
%TD*%
%TA.AperFunction,ViaPad*%
%ADD28C,0.450000*%
%TD*%
%TA.AperFunction,Conductor*%
%ADD29C,0.200000*%
%TD*%
%TA.AperFunction,Conductor*%
%ADD30C,0.342400*%
%TD*%
%TA.AperFunction,Conductor*%
%ADD31C,0.150000*%
%TD*%
%TA.AperFunction,Conductor*%
%ADD32C,0.349300*%
%TD*%
%TA.AperFunction,Conductor*%
%ADD33C,0.100000*%
%TD*%
G04 APERTURE END LIST*
D10*
D11*
X74520714Y-99489271D02*
X74520714Y-98219271D01*
X74520714Y-98219271D02*
X75246429Y-99489271D01*
X75246429Y-99489271D02*
X75246429Y-98219271D01*
X76032619Y-99489271D02*
X75911667Y-99428795D01*
X75911667Y-99428795D02*
X75851190Y-99368318D01*
X75851190Y-99368318D02*
X75790714Y-99247366D01*
X75790714Y-99247366D02*
X75790714Y-98884509D01*
X75790714Y-98884509D02*
X75851190Y-98763556D01*
X75851190Y-98763556D02*
X75911667Y-98703080D01*
X75911667Y-98703080D02*
X76032619Y-98642604D01*
X76032619Y-98642604D02*
X76214048Y-98642604D01*
X76214048Y-98642604D02*
X76335000Y-98703080D01*
X76335000Y-98703080D02*
X76395476Y-98763556D01*
X76395476Y-98763556D02*
X76455952Y-98884509D01*
X76455952Y-98884509D02*
X76455952Y-99247366D01*
X76455952Y-99247366D02*
X76395476Y-99368318D01*
X76395476Y-99368318D02*
X76335000Y-99428795D01*
X76335000Y-99428795D02*
X76214048Y-99489271D01*
X76214048Y-99489271D02*
X76032619Y-99489271D01*
X76879286Y-98642604D02*
X77181667Y-99489271D01*
X77181667Y-99489271D02*
X77484048Y-98642604D01*
X78451667Y-99428795D02*
X78330715Y-99489271D01*
X78330715Y-99489271D02*
X78088810Y-99489271D01*
X78088810Y-99489271D02*
X77967857Y-99428795D01*
X77967857Y-99428795D02*
X77907381Y-99307842D01*
X77907381Y-99307842D02*
X77907381Y-98824033D01*
X77907381Y-98824033D02*
X77967857Y-98703080D01*
X77967857Y-98703080D02*
X78088810Y-98642604D01*
X78088810Y-98642604D02*
X78330715Y-98642604D01*
X78330715Y-98642604D02*
X78451667Y-98703080D01*
X78451667Y-98703080D02*
X78512143Y-98824033D01*
X78512143Y-98824033D02*
X78512143Y-98944985D01*
X78512143Y-98944985D02*
X77907381Y-99065937D01*
X79056428Y-99489271D02*
X79056428Y-98642604D01*
X79056428Y-98763556D02*
X79116905Y-98703080D01*
X79116905Y-98703080D02*
X79237857Y-98642604D01*
X79237857Y-98642604D02*
X79419286Y-98642604D01*
X79419286Y-98642604D02*
X79540238Y-98703080D01*
X79540238Y-98703080D02*
X79600714Y-98824033D01*
X79600714Y-98824033D02*
X79600714Y-99489271D01*
X79600714Y-98824033D02*
X79661190Y-98703080D01*
X79661190Y-98703080D02*
X79782143Y-98642604D01*
X79782143Y-98642604D02*
X79963571Y-98642604D01*
X79963571Y-98642604D02*
X80084524Y-98703080D01*
X80084524Y-98703080D02*
X80145000Y-98824033D01*
X80145000Y-98824033D02*
X80145000Y-99489271D01*
X80749761Y-99489271D02*
X80749761Y-98219271D01*
X80749761Y-98703080D02*
X80870714Y-98642604D01*
X80870714Y-98642604D02*
X81112619Y-98642604D01*
X81112619Y-98642604D02*
X81233571Y-98703080D01*
X81233571Y-98703080D02*
X81294047Y-98763556D01*
X81294047Y-98763556D02*
X81354523Y-98884509D01*
X81354523Y-98884509D02*
X81354523Y-99247366D01*
X81354523Y-99247366D02*
X81294047Y-99368318D01*
X81294047Y-99368318D02*
X81233571Y-99428795D01*
X81233571Y-99428795D02*
X81112619Y-99489271D01*
X81112619Y-99489271D02*
X80870714Y-99489271D01*
X80870714Y-99489271D02*
X80749761Y-99428795D01*
X82382619Y-99428795D02*
X82261667Y-99489271D01*
X82261667Y-99489271D02*
X82019762Y-99489271D01*
X82019762Y-99489271D02*
X81898809Y-99428795D01*
X81898809Y-99428795D02*
X81838333Y-99307842D01*
X81838333Y-99307842D02*
X81838333Y-98824033D01*
X81838333Y-98824033D02*
X81898809Y-98703080D01*
X81898809Y-98703080D02*
X82019762Y-98642604D01*
X82019762Y-98642604D02*
X82261667Y-98642604D01*
X82261667Y-98642604D02*
X82382619Y-98703080D01*
X82382619Y-98703080D02*
X82443095Y-98824033D01*
X82443095Y-98824033D02*
X82443095Y-98944985D01*
X82443095Y-98944985D02*
X81838333Y-99065937D01*
X82987380Y-99489271D02*
X82987380Y-98642604D01*
X82987380Y-98884509D02*
X83047857Y-98763556D01*
X83047857Y-98763556D02*
X83108333Y-98703080D01*
X83108333Y-98703080D02*
X83229285Y-98642604D01*
X83229285Y-98642604D02*
X83350238Y-98642604D01*
X83834047Y-99428795D02*
X83834047Y-99489271D01*
X83834047Y-99489271D02*
X83773570Y-99610223D01*
X83773570Y-99610223D02*
X83713094Y-99670699D01*
X85285475Y-98340223D02*
X85345951Y-98279747D01*
X85345951Y-98279747D02*
X85466904Y-98219271D01*
X85466904Y-98219271D02*
X85769285Y-98219271D01*
X85769285Y-98219271D02*
X85890237Y-98279747D01*
X85890237Y-98279747D02*
X85950713Y-98340223D01*
X85950713Y-98340223D02*
X86011190Y-98461175D01*
X86011190Y-98461175D02*
X86011190Y-98582128D01*
X86011190Y-98582128D02*
X85950713Y-98763556D01*
X85950713Y-98763556D02*
X85224999Y-99489271D01*
X85224999Y-99489271D02*
X86011190Y-99489271D01*
X86797380Y-98219271D02*
X86918333Y-98219271D01*
X86918333Y-98219271D02*
X87039285Y-98279747D01*
X87039285Y-98279747D02*
X87099761Y-98340223D01*
X87099761Y-98340223D02*
X87160237Y-98461175D01*
X87160237Y-98461175D02*
X87220714Y-98703080D01*
X87220714Y-98703080D02*
X87220714Y-99005461D01*
X87220714Y-99005461D02*
X87160237Y-99247366D01*
X87160237Y-99247366D02*
X87099761Y-99368318D01*
X87099761Y-99368318D02*
X87039285Y-99428795D01*
X87039285Y-99428795D02*
X86918333Y-99489271D01*
X86918333Y-99489271D02*
X86797380Y-99489271D01*
X86797380Y-99489271D02*
X86676428Y-99428795D01*
X86676428Y-99428795D02*
X86615952Y-99368318D01*
X86615952Y-99368318D02*
X86555475Y-99247366D01*
X86555475Y-99247366D02*
X86494999Y-99005461D01*
X86494999Y-99005461D02*
X86494999Y-98703080D01*
X86494999Y-98703080D02*
X86555475Y-98461175D01*
X86555475Y-98461175D02*
X86615952Y-98340223D01*
X86615952Y-98340223D02*
X86676428Y-98279747D01*
X86676428Y-98279747D02*
X86797380Y-98219271D01*
X87704523Y-98340223D02*
X87764999Y-98279747D01*
X87764999Y-98279747D02*
X87885952Y-98219271D01*
X87885952Y-98219271D02*
X88188333Y-98219271D01*
X88188333Y-98219271D02*
X88309285Y-98279747D01*
X88309285Y-98279747D02*
X88369761Y-98340223D01*
X88369761Y-98340223D02*
X88430238Y-98461175D01*
X88430238Y-98461175D02*
X88430238Y-98582128D01*
X88430238Y-98582128D02*
X88369761Y-98763556D01*
X88369761Y-98763556D02*
X87644047Y-99489271D01*
X87644047Y-99489271D02*
X88430238Y-99489271D01*
X89579285Y-98219271D02*
X88974523Y-98219271D01*
X88974523Y-98219271D02*
X88914047Y-98824033D01*
X88914047Y-98824033D02*
X88974523Y-98763556D01*
X88974523Y-98763556D02*
X89095476Y-98703080D01*
X89095476Y-98703080D02*
X89397857Y-98703080D01*
X89397857Y-98703080D02*
X89518809Y-98763556D01*
X89518809Y-98763556D02*
X89579285Y-98824033D01*
X89579285Y-98824033D02*
X89639762Y-98944985D01*
X89639762Y-98944985D02*
X89639762Y-99247366D01*
X89639762Y-99247366D02*
X89579285Y-99368318D01*
X89579285Y-99368318D02*
X89518809Y-99428795D01*
X89518809Y-99428795D02*
X89397857Y-99489271D01*
X89397857Y-99489271D02*
X89095476Y-99489271D01*
X89095476Y-99489271D02*
X88974523Y-99428795D01*
X88974523Y-99428795D02*
X88914047Y-99368318D01*
D10*
D11*
X136824762Y-98349271D02*
X137248095Y-99619271D01*
X137248095Y-99619271D02*
X137671429Y-98349271D01*
X137973809Y-98349271D02*
X138760000Y-98349271D01*
X138760000Y-98349271D02*
X138336666Y-98833080D01*
X138336666Y-98833080D02*
X138518095Y-98833080D01*
X138518095Y-98833080D02*
X138639047Y-98893556D01*
X138639047Y-98893556D02*
X138699523Y-98954033D01*
X138699523Y-98954033D02*
X138760000Y-99074985D01*
X138760000Y-99074985D02*
X138760000Y-99377366D01*
X138760000Y-99377366D02*
X138699523Y-99498318D01*
X138699523Y-99498318D02*
X138639047Y-99558795D01*
X138639047Y-99558795D02*
X138518095Y-99619271D01*
X138518095Y-99619271D02*
X138155238Y-99619271D01*
X138155238Y-99619271D02*
X138034285Y-99558795D01*
X138034285Y-99558795D02*
X137973809Y-99498318D01*
X139304285Y-99498318D02*
X139364762Y-99558795D01*
X139364762Y-99558795D02*
X139304285Y-99619271D01*
X139304285Y-99619271D02*
X139243809Y-99558795D01*
X139243809Y-99558795D02*
X139304285Y-99498318D01*
X139304285Y-99498318D02*
X139304285Y-99619271D01*
X140453333Y-98772604D02*
X140453333Y-99619271D01*
X140150952Y-98288795D02*
X139848571Y-99195937D01*
X139848571Y-99195937D02*
X140634762Y-99195937D01*
D10*
D11*
X56236904Y-96080223D02*
X56115952Y-96019747D01*
X56115952Y-96019747D02*
X55994999Y-95898795D01*
X55994999Y-95898795D02*
X55813571Y-95717366D01*
X55813571Y-95717366D02*
X55692618Y-95656890D01*
X55692618Y-95656890D02*
X55571666Y-95656890D01*
X55632142Y-95959271D02*
X55511190Y-95898795D01*
X55511190Y-95898795D02*
X55390237Y-95777842D01*
X55390237Y-95777842D02*
X55329761Y-95535937D01*
X55329761Y-95535937D02*
X55329761Y-95112604D01*
X55329761Y-95112604D02*
X55390237Y-94870699D01*
X55390237Y-94870699D02*
X55511190Y-94749747D01*
X55511190Y-94749747D02*
X55632142Y-94689271D01*
X55632142Y-94689271D02*
X55874047Y-94689271D01*
X55874047Y-94689271D02*
X55994999Y-94749747D01*
X55994999Y-94749747D02*
X56115952Y-94870699D01*
X56115952Y-94870699D02*
X56176428Y-95112604D01*
X56176428Y-95112604D02*
X56176428Y-95535937D01*
X56176428Y-95535937D02*
X56115952Y-95777842D01*
X56115952Y-95777842D02*
X55994999Y-95898795D01*
X55994999Y-95898795D02*
X55874047Y-95959271D01*
X55874047Y-95959271D02*
X55632142Y-95959271D01*
X56902142Y-95959271D02*
X56781190Y-95898795D01*
X56781190Y-95898795D02*
X56720713Y-95838318D01*
X56720713Y-95838318D02*
X56660237Y-95717366D01*
X56660237Y-95717366D02*
X56660237Y-95354509D01*
X56660237Y-95354509D02*
X56720713Y-95233556D01*
X56720713Y-95233556D02*
X56781190Y-95173080D01*
X56781190Y-95173080D02*
X56902142Y-95112604D01*
X56902142Y-95112604D02*
X57083571Y-95112604D01*
X57083571Y-95112604D02*
X57204523Y-95173080D01*
X57204523Y-95173080D02*
X57264999Y-95233556D01*
X57264999Y-95233556D02*
X57325475Y-95354509D01*
X57325475Y-95354509D02*
X57325475Y-95717366D01*
X57325475Y-95717366D02*
X57264999Y-95838318D01*
X57264999Y-95838318D02*
X57204523Y-95898795D01*
X57204523Y-95898795D02*
X57083571Y-95959271D01*
X57083571Y-95959271D02*
X56902142Y-95959271D01*
X57869761Y-95959271D02*
X57869761Y-95112604D01*
X57869761Y-95354509D02*
X57930238Y-95233556D01*
X57930238Y-95233556D02*
X57990714Y-95173080D01*
X57990714Y-95173080D02*
X58111666Y-95112604D01*
X58111666Y-95112604D02*
X58232619Y-95112604D01*
X58534999Y-95112604D02*
X58837380Y-95959271D01*
X58837380Y-95959271D02*
X59139761Y-95112604D01*
X59804999Y-95959271D02*
X59684047Y-95898795D01*
X59684047Y-95898795D02*
X59623570Y-95838318D01*
X59623570Y-95838318D02*
X59563094Y-95717366D01*
X59563094Y-95717366D02*
X59563094Y-95354509D01*
X59563094Y-95354509D02*
X59623570Y-95233556D01*
X59623570Y-95233556D02*
X59684047Y-95173080D01*
X59684047Y-95173080D02*
X59804999Y-95112604D01*
X59804999Y-95112604D02*
X59986428Y-95112604D01*
X59986428Y-95112604D02*
X60107380Y-95173080D01*
X60107380Y-95173080D02*
X60167856Y-95233556D01*
X60167856Y-95233556D02*
X60228332Y-95354509D01*
X60228332Y-95354509D02*
X60228332Y-95717366D01*
X60228332Y-95717366D02*
X60167856Y-95838318D01*
X60167856Y-95838318D02*
X60107380Y-95898795D01*
X60107380Y-95898795D02*
X59986428Y-95959271D01*
X59986428Y-95959271D02*
X59804999Y-95959271D01*
X61558809Y-94689271D02*
X62284523Y-94689271D01*
X61921666Y-95959271D02*
X61921666Y-94689271D01*
X63554523Y-96080223D02*
X63433571Y-96019747D01*
X63433571Y-96019747D02*
X63312618Y-95898795D01*
X63312618Y-95898795D02*
X63131190Y-95717366D01*
X63131190Y-95717366D02*
X63010237Y-95656890D01*
X63010237Y-95656890D02*
X62889285Y-95656890D01*
X62949761Y-95959271D02*
X62828809Y-95898795D01*
X62828809Y-95898795D02*
X62707856Y-95777842D01*
X62707856Y-95777842D02*
X62647380Y-95535937D01*
X62647380Y-95535937D02*
X62647380Y-95112604D01*
X62647380Y-95112604D02*
X62707856Y-94870699D01*
X62707856Y-94870699D02*
X62828809Y-94749747D01*
X62828809Y-94749747D02*
X62949761Y-94689271D01*
X62949761Y-94689271D02*
X63191666Y-94689271D01*
X63191666Y-94689271D02*
X63312618Y-94749747D01*
X63312618Y-94749747D02*
X63433571Y-94870699D01*
X63433571Y-94870699D02*
X63494047Y-95112604D01*
X63494047Y-95112604D02*
X63494047Y-95535937D01*
X63494047Y-95535937D02*
X63433571Y-95777842D01*
X63433571Y-95777842D02*
X63312618Y-95898795D01*
X63312618Y-95898795D02*
X63191666Y-95959271D01*
X63191666Y-95959271D02*
X62949761Y-95959271D01*
X64038332Y-95959271D02*
X64038332Y-94689271D01*
X64038332Y-94689271D02*
X64522142Y-94689271D01*
X64522142Y-94689271D02*
X64643094Y-94749747D01*
X64643094Y-94749747D02*
X64703571Y-94810223D01*
X64703571Y-94810223D02*
X64764047Y-94931175D01*
X64764047Y-94931175D02*
X64764047Y-95112604D01*
X64764047Y-95112604D02*
X64703571Y-95233556D01*
X64703571Y-95233556D02*
X64643094Y-95294033D01*
X64643094Y-95294033D02*
X64522142Y-95354509D01*
X64522142Y-95354509D02*
X64038332Y-95354509D01*
X65187380Y-94689271D02*
X65973571Y-94689271D01*
X65973571Y-94689271D02*
X65550237Y-95173080D01*
X65550237Y-95173080D02*
X65731666Y-95173080D01*
X65731666Y-95173080D02*
X65852618Y-95233556D01*
X65852618Y-95233556D02*
X65913094Y-95294033D01*
X65913094Y-95294033D02*
X65973571Y-95414985D01*
X65973571Y-95414985D02*
X65973571Y-95717366D01*
X65973571Y-95717366D02*
X65913094Y-95838318D01*
X65913094Y-95838318D02*
X65852618Y-95898795D01*
X65852618Y-95898795D02*
X65731666Y-95959271D01*
X65731666Y-95959271D02*
X65368809Y-95959271D01*
X65368809Y-95959271D02*
X65247856Y-95898795D01*
X65247856Y-95898795D02*
X65187380Y-95838318D01*
X66517856Y-95959271D02*
X66517856Y-94689271D01*
X66517856Y-94689271D02*
X66941190Y-95596414D01*
X66941190Y-95596414D02*
X67364523Y-94689271D01*
X67364523Y-94689271D02*
X67364523Y-95959271D01*
X68029762Y-95959271D02*
X68271666Y-95959271D01*
X68271666Y-95959271D02*
X68392619Y-95898795D01*
X68392619Y-95898795D02*
X68453095Y-95838318D01*
X68453095Y-95838318D02*
X68574047Y-95656890D01*
X68574047Y-95656890D02*
X68634524Y-95414985D01*
X68634524Y-95414985D02*
X68634524Y-94931175D01*
X68634524Y-94931175D02*
X68574047Y-94810223D01*
X68574047Y-94810223D02*
X68513571Y-94749747D01*
X68513571Y-94749747D02*
X68392619Y-94689271D01*
X68392619Y-94689271D02*
X68150714Y-94689271D01*
X68150714Y-94689271D02*
X68029762Y-94749747D01*
X68029762Y-94749747D02*
X67969285Y-94810223D01*
X67969285Y-94810223D02*
X67908809Y-94931175D01*
X67908809Y-94931175D02*
X67908809Y-95233556D01*
X67908809Y-95233556D02*
X67969285Y-95354509D01*
X67969285Y-95354509D02*
X68029762Y-95414985D01*
X68029762Y-95414985D02*
X68150714Y-95475461D01*
X68150714Y-95475461D02*
X68392619Y-95475461D01*
X68392619Y-95475461D02*
X68513571Y-95414985D01*
X68513571Y-95414985D02*
X68574047Y-95354509D01*
X68574047Y-95354509D02*
X68634524Y-95233556D01*
X69420714Y-94689271D02*
X69541667Y-94689271D01*
X69541667Y-94689271D02*
X69662619Y-94749747D01*
X69662619Y-94749747D02*
X69723095Y-94810223D01*
X69723095Y-94810223D02*
X69783571Y-94931175D01*
X69783571Y-94931175D02*
X69844048Y-95173080D01*
X69844048Y-95173080D02*
X69844048Y-95475461D01*
X69844048Y-95475461D02*
X69783571Y-95717366D01*
X69783571Y-95717366D02*
X69723095Y-95838318D01*
X69723095Y-95838318D02*
X69662619Y-95898795D01*
X69662619Y-95898795D02*
X69541667Y-95959271D01*
X69541667Y-95959271D02*
X69420714Y-95959271D01*
X69420714Y-95959271D02*
X69299762Y-95898795D01*
X69299762Y-95898795D02*
X69239286Y-95838318D01*
X69239286Y-95838318D02*
X69178809Y-95717366D01*
X69178809Y-95717366D02*
X69118333Y-95475461D01*
X69118333Y-95475461D02*
X69118333Y-95173080D01*
X69118333Y-95173080D02*
X69178809Y-94931175D01*
X69178809Y-94931175D02*
X69239286Y-94810223D01*
X69239286Y-94810223D02*
X69299762Y-94749747D01*
X69299762Y-94749747D02*
X69420714Y-94689271D01*
X70267381Y-94689271D02*
X71053572Y-94689271D01*
X71053572Y-94689271D02*
X70630238Y-95173080D01*
X70630238Y-95173080D02*
X70811667Y-95173080D01*
X70811667Y-95173080D02*
X70932619Y-95233556D01*
X70932619Y-95233556D02*
X70993095Y-95294033D01*
X70993095Y-95294033D02*
X71053572Y-95414985D01*
X71053572Y-95414985D02*
X71053572Y-95717366D01*
X71053572Y-95717366D02*
X70993095Y-95838318D01*
X70993095Y-95838318D02*
X70932619Y-95898795D01*
X70932619Y-95898795D02*
X70811667Y-95959271D01*
X70811667Y-95959271D02*
X70448810Y-95959271D01*
X70448810Y-95959271D02*
X70327857Y-95898795D01*
X70327857Y-95898795D02*
X70267381Y-95838318D01*
X72142143Y-94689271D02*
X71900238Y-94689271D01*
X71900238Y-94689271D02*
X71779286Y-94749747D01*
X71779286Y-94749747D02*
X71718810Y-94810223D01*
X71718810Y-94810223D02*
X71597857Y-94991652D01*
X71597857Y-94991652D02*
X71537381Y-95233556D01*
X71537381Y-95233556D02*
X71537381Y-95717366D01*
X71537381Y-95717366D02*
X71597857Y-95838318D01*
X71597857Y-95838318D02*
X71658334Y-95898795D01*
X71658334Y-95898795D02*
X71779286Y-95959271D01*
X71779286Y-95959271D02*
X72021191Y-95959271D01*
X72021191Y-95959271D02*
X72142143Y-95898795D01*
X72142143Y-95898795D02*
X72202619Y-95838318D01*
X72202619Y-95838318D02*
X72263096Y-95717366D01*
X72263096Y-95717366D02*
X72263096Y-95414985D01*
X72263096Y-95414985D02*
X72202619Y-95294033D01*
X72202619Y-95294033D02*
X72142143Y-95233556D01*
X72142143Y-95233556D02*
X72021191Y-95173080D01*
X72021191Y-95173080D02*
X71779286Y-95173080D01*
X71779286Y-95173080D02*
X71658334Y-95233556D01*
X71658334Y-95233556D02*
X71597857Y-95294033D01*
X71597857Y-95294033D02*
X71537381Y-95414985D01*
X74379762Y-95959271D02*
X73775000Y-95959271D01*
X73775000Y-95959271D02*
X73775000Y-94689271D01*
X74803095Y-95959271D02*
X74803095Y-94689271D01*
X74803095Y-94689271D02*
X75528810Y-95959271D01*
X75528810Y-95959271D02*
X75528810Y-94689271D01*
X76073095Y-95596414D02*
X76677857Y-95596414D01*
X75952143Y-95959271D02*
X76375476Y-94689271D01*
X76375476Y-94689271D02*
X76798810Y-95959271D01*
X78794523Y-94689271D02*
X78189761Y-94689271D01*
X78189761Y-94689271D02*
X78129285Y-95294033D01*
X78129285Y-95294033D02*
X78189761Y-95233556D01*
X78189761Y-95233556D02*
X78310714Y-95173080D01*
X78310714Y-95173080D02*
X78613095Y-95173080D01*
X78613095Y-95173080D02*
X78734047Y-95233556D01*
X78734047Y-95233556D02*
X78794523Y-95294033D01*
X78794523Y-95294033D02*
X78855000Y-95414985D01*
X78855000Y-95414985D02*
X78855000Y-95717366D01*
X78855000Y-95717366D02*
X78794523Y-95838318D01*
X78794523Y-95838318D02*
X78734047Y-95898795D01*
X78734047Y-95898795D02*
X78613095Y-95959271D01*
X78613095Y-95959271D02*
X78310714Y-95959271D01*
X78310714Y-95959271D02*
X78189761Y-95898795D01*
X78189761Y-95898795D02*
X78129285Y-95838318D01*
X79641190Y-94689271D02*
X79762143Y-94689271D01*
X79762143Y-94689271D02*
X79883095Y-94749747D01*
X79883095Y-94749747D02*
X79943571Y-94810223D01*
X79943571Y-94810223D02*
X80004047Y-94931175D01*
X80004047Y-94931175D02*
X80064524Y-95173080D01*
X80064524Y-95173080D02*
X80064524Y-95475461D01*
X80064524Y-95475461D02*
X80004047Y-95717366D01*
X80004047Y-95717366D02*
X79943571Y-95838318D01*
X79943571Y-95838318D02*
X79883095Y-95898795D01*
X79883095Y-95898795D02*
X79762143Y-95959271D01*
X79762143Y-95959271D02*
X79641190Y-95959271D01*
X79641190Y-95959271D02*
X79520238Y-95898795D01*
X79520238Y-95898795D02*
X79459762Y-95838318D01*
X79459762Y-95838318D02*
X79399285Y-95717366D01*
X79399285Y-95717366D02*
X79338809Y-95475461D01*
X79338809Y-95475461D02*
X79338809Y-95173080D01*
X79338809Y-95173080D02*
X79399285Y-94931175D01*
X79399285Y-94931175D02*
X79459762Y-94810223D01*
X79459762Y-94810223D02*
X79520238Y-94749747D01*
X79520238Y-94749747D02*
X79641190Y-94689271D01*
X81395000Y-95112604D02*
X81878809Y-95112604D01*
X81576428Y-94689271D02*
X81576428Y-95777842D01*
X81576428Y-95777842D02*
X81636905Y-95898795D01*
X81636905Y-95898795D02*
X81757857Y-95959271D01*
X81757857Y-95959271D02*
X81878809Y-95959271D01*
X82483571Y-95959271D02*
X82362619Y-95898795D01*
X82362619Y-95898795D02*
X82302142Y-95838318D01*
X82302142Y-95838318D02*
X82241666Y-95717366D01*
X82241666Y-95717366D02*
X82241666Y-95354509D01*
X82241666Y-95354509D02*
X82302142Y-95233556D01*
X82302142Y-95233556D02*
X82362619Y-95173080D01*
X82362619Y-95173080D02*
X82483571Y-95112604D01*
X82483571Y-95112604D02*
X82665000Y-95112604D01*
X82665000Y-95112604D02*
X82785952Y-95173080D01*
X82785952Y-95173080D02*
X82846428Y-95233556D01*
X82846428Y-95233556D02*
X82906904Y-95354509D01*
X82906904Y-95354509D02*
X82906904Y-95717366D01*
X82906904Y-95717366D02*
X82846428Y-95838318D01*
X82846428Y-95838318D02*
X82785952Y-95898795D01*
X82785952Y-95898795D02*
X82665000Y-95959271D01*
X82665000Y-95959271D02*
X82483571Y-95959271D01*
X85084048Y-95959271D02*
X84358333Y-95959271D01*
X84721190Y-95959271D02*
X84721190Y-94689271D01*
X84721190Y-94689271D02*
X84600238Y-94870699D01*
X84600238Y-94870699D02*
X84479286Y-94991652D01*
X84479286Y-94991652D02*
X84358333Y-95052128D01*
X86233095Y-94689271D02*
X85628333Y-94689271D01*
X85628333Y-94689271D02*
X85567857Y-95294033D01*
X85567857Y-95294033D02*
X85628333Y-95233556D01*
X85628333Y-95233556D02*
X85749286Y-95173080D01*
X85749286Y-95173080D02*
X86051667Y-95173080D01*
X86051667Y-95173080D02*
X86172619Y-95233556D01*
X86172619Y-95233556D02*
X86233095Y-95294033D01*
X86233095Y-95294033D02*
X86293572Y-95414985D01*
X86293572Y-95414985D02*
X86293572Y-95717366D01*
X86293572Y-95717366D02*
X86233095Y-95838318D01*
X86233095Y-95838318D02*
X86172619Y-95898795D01*
X86172619Y-95898795D02*
X86051667Y-95959271D01*
X86051667Y-95959271D02*
X85749286Y-95959271D01*
X85749286Y-95959271D02*
X85628333Y-95898795D01*
X85628333Y-95898795D02*
X85567857Y-95838318D01*
X87079762Y-94689271D02*
X87200715Y-94689271D01*
X87200715Y-94689271D02*
X87321667Y-94749747D01*
X87321667Y-94749747D02*
X87382143Y-94810223D01*
X87382143Y-94810223D02*
X87442619Y-94931175D01*
X87442619Y-94931175D02*
X87503096Y-95173080D01*
X87503096Y-95173080D02*
X87503096Y-95475461D01*
X87503096Y-95475461D02*
X87442619Y-95717366D01*
X87442619Y-95717366D02*
X87382143Y-95838318D01*
X87382143Y-95838318D02*
X87321667Y-95898795D01*
X87321667Y-95898795D02*
X87200715Y-95959271D01*
X87200715Y-95959271D02*
X87079762Y-95959271D01*
X87079762Y-95959271D02*
X86958810Y-95898795D01*
X86958810Y-95898795D02*
X86898334Y-95838318D01*
X86898334Y-95838318D02*
X86837857Y-95717366D01*
X86837857Y-95717366D02*
X86777381Y-95475461D01*
X86777381Y-95475461D02*
X86777381Y-95173080D01*
X86777381Y-95173080D02*
X86837857Y-94931175D01*
X86837857Y-94931175D02*
X86898334Y-94810223D01*
X86898334Y-94810223D02*
X86958810Y-94749747D01*
X86958810Y-94749747D02*
X87079762Y-94689271D01*
X88289286Y-94689271D02*
X88410239Y-94689271D01*
X88410239Y-94689271D02*
X88531191Y-94749747D01*
X88531191Y-94749747D02*
X88591667Y-94810223D01*
X88591667Y-94810223D02*
X88652143Y-94931175D01*
X88652143Y-94931175D02*
X88712620Y-95173080D01*
X88712620Y-95173080D02*
X88712620Y-95475461D01*
X88712620Y-95475461D02*
X88652143Y-95717366D01*
X88652143Y-95717366D02*
X88591667Y-95838318D01*
X88591667Y-95838318D02*
X88531191Y-95898795D01*
X88531191Y-95898795D02*
X88410239Y-95959271D01*
X88410239Y-95959271D02*
X88289286Y-95959271D01*
X88289286Y-95959271D02*
X88168334Y-95898795D01*
X88168334Y-95898795D02*
X88107858Y-95838318D01*
X88107858Y-95838318D02*
X88047381Y-95717366D01*
X88047381Y-95717366D02*
X87986905Y-95475461D01*
X87986905Y-95475461D02*
X87986905Y-95173080D01*
X87986905Y-95173080D02*
X88047381Y-94931175D01*
X88047381Y-94931175D02*
X88107858Y-94810223D01*
X88107858Y-94810223D02*
X88168334Y-94749747D01*
X88168334Y-94749747D02*
X88289286Y-94689271D01*
X90224524Y-95959271D02*
X90224524Y-94689271D01*
X90224524Y-94689271D02*
X90647858Y-95596414D01*
X90647858Y-95596414D02*
X91071191Y-94689271D01*
X91071191Y-94689271D02*
X91071191Y-95959271D01*
X91675953Y-95959271D02*
X91675953Y-94689271D01*
X91675953Y-95294033D02*
X92401668Y-95294033D01*
X92401668Y-95959271D02*
X92401668Y-94689271D01*
X92885477Y-95112604D02*
X93550715Y-95112604D01*
X93550715Y-95112604D02*
X92885477Y-95959271D01*
X92885477Y-95959271D02*
X93550715Y-95959271D01*
D10*
D11*
X73953333Y-83989747D02*
X73832380Y-83929271D01*
X73832380Y-83929271D02*
X73650952Y-83929271D01*
X73650952Y-83929271D02*
X73469523Y-83989747D01*
X73469523Y-83989747D02*
X73348571Y-84110699D01*
X73348571Y-84110699D02*
X73288094Y-84231652D01*
X73288094Y-84231652D02*
X73227618Y-84473556D01*
X73227618Y-84473556D02*
X73227618Y-84654985D01*
X73227618Y-84654985D02*
X73288094Y-84896890D01*
X73288094Y-84896890D02*
X73348571Y-85017842D01*
X73348571Y-85017842D02*
X73469523Y-85138795D01*
X73469523Y-85138795D02*
X73650952Y-85199271D01*
X73650952Y-85199271D02*
X73771904Y-85199271D01*
X73771904Y-85199271D02*
X73953333Y-85138795D01*
X73953333Y-85138795D02*
X74013809Y-85078318D01*
X74013809Y-85078318D02*
X74013809Y-84654985D01*
X74013809Y-84654985D02*
X73771904Y-84654985D01*
X74558094Y-85199271D02*
X74558094Y-84352604D01*
X74558094Y-83929271D02*
X74497618Y-83989747D01*
X74497618Y-83989747D02*
X74558094Y-84050223D01*
X74558094Y-84050223D02*
X74618571Y-83989747D01*
X74618571Y-83989747D02*
X74558094Y-83929271D01*
X74558094Y-83929271D02*
X74558094Y-84050223D01*
X74981428Y-84352604D02*
X75465237Y-84352604D01*
X75162856Y-83929271D02*
X75162856Y-85017842D01*
X75162856Y-85017842D02*
X75223333Y-85138795D01*
X75223333Y-85138795D02*
X75344285Y-85199271D01*
X75344285Y-85199271D02*
X75465237Y-85199271D01*
X77279523Y-84534033D02*
X77460951Y-84594509D01*
X77460951Y-84594509D02*
X77521428Y-84654985D01*
X77521428Y-84654985D02*
X77581904Y-84775937D01*
X77581904Y-84775937D02*
X77581904Y-84957366D01*
X77581904Y-84957366D02*
X77521428Y-85078318D01*
X77521428Y-85078318D02*
X77460951Y-85138795D01*
X77460951Y-85138795D02*
X77339999Y-85199271D01*
X77339999Y-85199271D02*
X76856189Y-85199271D01*
X76856189Y-85199271D02*
X76856189Y-83929271D01*
X76856189Y-83929271D02*
X77279523Y-83929271D01*
X77279523Y-83929271D02*
X77400475Y-83989747D01*
X77400475Y-83989747D02*
X77460951Y-84050223D01*
X77460951Y-84050223D02*
X77521428Y-84171175D01*
X77521428Y-84171175D02*
X77521428Y-84292128D01*
X77521428Y-84292128D02*
X77460951Y-84413080D01*
X77460951Y-84413080D02*
X77400475Y-84473556D01*
X77400475Y-84473556D02*
X77279523Y-84534033D01*
X77279523Y-84534033D02*
X76856189Y-84534033D01*
X78126189Y-85199271D02*
X78126189Y-84352604D01*
X78126189Y-84594509D02*
X78186666Y-84473556D01*
X78186666Y-84473556D02*
X78247142Y-84413080D01*
X78247142Y-84413080D02*
X78368094Y-84352604D01*
X78368094Y-84352604D02*
X78489047Y-84352604D01*
X79456665Y-85199271D02*
X79456665Y-84534033D01*
X79456665Y-84534033D02*
X79396189Y-84413080D01*
X79396189Y-84413080D02*
X79275237Y-84352604D01*
X79275237Y-84352604D02*
X79033332Y-84352604D01*
X79033332Y-84352604D02*
X78912379Y-84413080D01*
X79456665Y-85138795D02*
X79335713Y-85199271D01*
X79335713Y-85199271D02*
X79033332Y-85199271D01*
X79033332Y-85199271D02*
X78912379Y-85138795D01*
X78912379Y-85138795D02*
X78851903Y-85017842D01*
X78851903Y-85017842D02*
X78851903Y-84896890D01*
X78851903Y-84896890D02*
X78912379Y-84775937D01*
X78912379Y-84775937D02*
X79033332Y-84715461D01*
X79033332Y-84715461D02*
X79335713Y-84715461D01*
X79335713Y-84715461D02*
X79456665Y-84654985D01*
X80061427Y-84352604D02*
X80061427Y-85199271D01*
X80061427Y-84473556D02*
X80121904Y-84413080D01*
X80121904Y-84413080D02*
X80242856Y-84352604D01*
X80242856Y-84352604D02*
X80424285Y-84352604D01*
X80424285Y-84352604D02*
X80545237Y-84413080D01*
X80545237Y-84413080D02*
X80605713Y-84534033D01*
X80605713Y-84534033D02*
X80605713Y-85199271D01*
X81754761Y-85138795D02*
X81633809Y-85199271D01*
X81633809Y-85199271D02*
X81391904Y-85199271D01*
X81391904Y-85199271D02*
X81270952Y-85138795D01*
X81270952Y-85138795D02*
X81210475Y-85078318D01*
X81210475Y-85078318D02*
X81149999Y-84957366D01*
X81149999Y-84957366D02*
X81149999Y-84594509D01*
X81149999Y-84594509D02*
X81210475Y-84473556D01*
X81210475Y-84473556D02*
X81270952Y-84413080D01*
X81270952Y-84413080D02*
X81391904Y-84352604D01*
X81391904Y-84352604D02*
X81633809Y-84352604D01*
X81633809Y-84352604D02*
X81754761Y-84413080D01*
X82299046Y-85199271D02*
X82299046Y-83929271D01*
X82843332Y-85199271D02*
X82843332Y-84534033D01*
X82843332Y-84534033D02*
X82782856Y-84413080D01*
X82782856Y-84413080D02*
X82661904Y-84352604D01*
X82661904Y-84352604D02*
X82480475Y-84352604D01*
X82480475Y-84352604D02*
X82359523Y-84413080D01*
X82359523Y-84413080D02*
X82299046Y-84473556D01*
X84234285Y-83929271D02*
X84959999Y-83929271D01*
X84597142Y-85199271D02*
X84597142Y-83929271D01*
X86229999Y-85320223D02*
X86109047Y-85259747D01*
X86109047Y-85259747D02*
X85988094Y-85138795D01*
X85988094Y-85138795D02*
X85806666Y-84957366D01*
X85806666Y-84957366D02*
X85685713Y-84896890D01*
X85685713Y-84896890D02*
X85564761Y-84896890D01*
X85625237Y-85199271D02*
X85504285Y-85138795D01*
X85504285Y-85138795D02*
X85383332Y-85017842D01*
X85383332Y-85017842D02*
X85322856Y-84775937D01*
X85322856Y-84775937D02*
X85322856Y-84352604D01*
X85322856Y-84352604D02*
X85383332Y-84110699D01*
X85383332Y-84110699D02*
X85504285Y-83989747D01*
X85504285Y-83989747D02*
X85625237Y-83929271D01*
X85625237Y-83929271D02*
X85867142Y-83929271D01*
X85867142Y-83929271D02*
X85988094Y-83989747D01*
X85988094Y-83989747D02*
X86109047Y-84110699D01*
X86109047Y-84110699D02*
X86169523Y-84352604D01*
X86169523Y-84352604D02*
X86169523Y-84775937D01*
X86169523Y-84775937D02*
X86109047Y-85017842D01*
X86109047Y-85017842D02*
X85988094Y-85138795D01*
X85988094Y-85138795D02*
X85867142Y-85199271D01*
X85867142Y-85199271D02*
X85625237Y-85199271D01*
X86713808Y-85199271D02*
X86713808Y-83929271D01*
X86713808Y-83929271D02*
X87197618Y-83929271D01*
X87197618Y-83929271D02*
X87318570Y-83989747D01*
X87318570Y-83989747D02*
X87379047Y-84050223D01*
X87379047Y-84050223D02*
X87439523Y-84171175D01*
X87439523Y-84171175D02*
X87439523Y-84352604D01*
X87439523Y-84352604D02*
X87379047Y-84473556D01*
X87379047Y-84473556D02*
X87318570Y-84534033D01*
X87318570Y-84534033D02*
X87197618Y-84594509D01*
X87197618Y-84594509D02*
X86713808Y-84594509D01*
X87862856Y-83929271D02*
X88649047Y-83929271D01*
X88649047Y-83929271D02*
X88225713Y-84413080D01*
X88225713Y-84413080D02*
X88407142Y-84413080D01*
X88407142Y-84413080D02*
X88528094Y-84473556D01*
X88528094Y-84473556D02*
X88588570Y-84534033D01*
X88588570Y-84534033D02*
X88649047Y-84654985D01*
X88649047Y-84654985D02*
X88649047Y-84957366D01*
X88649047Y-84957366D02*
X88588570Y-85078318D01*
X88588570Y-85078318D02*
X88528094Y-85138795D01*
X88528094Y-85138795D02*
X88407142Y-85199271D01*
X88407142Y-85199271D02*
X88044285Y-85199271D01*
X88044285Y-85199271D02*
X87923332Y-85138795D01*
X87923332Y-85138795D02*
X87862856Y-85078318D01*
X89193332Y-85199271D02*
X89193332Y-83929271D01*
X89193332Y-83929271D02*
X89616666Y-84836414D01*
X89616666Y-84836414D02*
X90039999Y-83929271D01*
X90039999Y-83929271D02*
X90039999Y-85199271D01*
X90705238Y-85199271D02*
X90947142Y-85199271D01*
X90947142Y-85199271D02*
X91068095Y-85138795D01*
X91068095Y-85138795D02*
X91128571Y-85078318D01*
X91128571Y-85078318D02*
X91249523Y-84896890D01*
X91249523Y-84896890D02*
X91310000Y-84654985D01*
X91310000Y-84654985D02*
X91310000Y-84171175D01*
X91310000Y-84171175D02*
X91249523Y-84050223D01*
X91249523Y-84050223D02*
X91189047Y-83989747D01*
X91189047Y-83989747D02*
X91068095Y-83929271D01*
X91068095Y-83929271D02*
X90826190Y-83929271D01*
X90826190Y-83929271D02*
X90705238Y-83989747D01*
X90705238Y-83989747D02*
X90644761Y-84050223D01*
X90644761Y-84050223D02*
X90584285Y-84171175D01*
X90584285Y-84171175D02*
X90584285Y-84473556D01*
X90584285Y-84473556D02*
X90644761Y-84594509D01*
X90644761Y-84594509D02*
X90705238Y-84654985D01*
X90705238Y-84654985D02*
X90826190Y-84715461D01*
X90826190Y-84715461D02*
X91068095Y-84715461D01*
X91068095Y-84715461D02*
X91189047Y-84654985D01*
X91189047Y-84654985D02*
X91249523Y-84594509D01*
X91249523Y-84594509D02*
X91310000Y-84473556D01*
X92096190Y-83929271D02*
X92217143Y-83929271D01*
X92217143Y-83929271D02*
X92338095Y-83989747D01*
X92338095Y-83989747D02*
X92398571Y-84050223D01*
X92398571Y-84050223D02*
X92459047Y-84171175D01*
X92459047Y-84171175D02*
X92519524Y-84413080D01*
X92519524Y-84413080D02*
X92519524Y-84715461D01*
X92519524Y-84715461D02*
X92459047Y-84957366D01*
X92459047Y-84957366D02*
X92398571Y-85078318D01*
X92398571Y-85078318D02*
X92338095Y-85138795D01*
X92338095Y-85138795D02*
X92217143Y-85199271D01*
X92217143Y-85199271D02*
X92096190Y-85199271D01*
X92096190Y-85199271D02*
X91975238Y-85138795D01*
X91975238Y-85138795D02*
X91914762Y-85078318D01*
X91914762Y-85078318D02*
X91854285Y-84957366D01*
X91854285Y-84957366D02*
X91793809Y-84715461D01*
X91793809Y-84715461D02*
X91793809Y-84413080D01*
X91793809Y-84413080D02*
X91854285Y-84171175D01*
X91854285Y-84171175D02*
X91914762Y-84050223D01*
X91914762Y-84050223D02*
X91975238Y-83989747D01*
X91975238Y-83989747D02*
X92096190Y-83929271D01*
X92942857Y-83929271D02*
X93729048Y-83929271D01*
X93729048Y-83929271D02*
X93305714Y-84413080D01*
X93305714Y-84413080D02*
X93487143Y-84413080D01*
X93487143Y-84413080D02*
X93608095Y-84473556D01*
X93608095Y-84473556D02*
X93668571Y-84534033D01*
X93668571Y-84534033D02*
X93729048Y-84654985D01*
X93729048Y-84654985D02*
X93729048Y-84957366D01*
X93729048Y-84957366D02*
X93668571Y-85078318D01*
X93668571Y-85078318D02*
X93608095Y-85138795D01*
X93608095Y-85138795D02*
X93487143Y-85199271D01*
X93487143Y-85199271D02*
X93124286Y-85199271D01*
X93124286Y-85199271D02*
X93003333Y-85138795D01*
X93003333Y-85138795D02*
X92942857Y-85078318D01*
X94817619Y-83929271D02*
X94575714Y-83929271D01*
X94575714Y-83929271D02*
X94454762Y-83989747D01*
X94454762Y-83989747D02*
X94394286Y-84050223D01*
X94394286Y-84050223D02*
X94273333Y-84231652D01*
X94273333Y-84231652D02*
X94212857Y-84473556D01*
X94212857Y-84473556D02*
X94212857Y-84957366D01*
X94212857Y-84957366D02*
X94273333Y-85078318D01*
X94273333Y-85078318D02*
X94333810Y-85138795D01*
X94333810Y-85138795D02*
X94454762Y-85199271D01*
X94454762Y-85199271D02*
X94696667Y-85199271D01*
X94696667Y-85199271D02*
X94817619Y-85138795D01*
X94817619Y-85138795D02*
X94878095Y-85078318D01*
X94878095Y-85078318D02*
X94938572Y-84957366D01*
X94938572Y-84957366D02*
X94938572Y-84654985D01*
X94938572Y-84654985D02*
X94878095Y-84534033D01*
X94878095Y-84534033D02*
X94817619Y-84473556D01*
X94817619Y-84473556D02*
X94696667Y-84413080D01*
X94696667Y-84413080D02*
X94454762Y-84413080D01*
X94454762Y-84413080D02*
X94333810Y-84473556D01*
X94333810Y-84473556D02*
X94273333Y-84534033D01*
X94273333Y-84534033D02*
X94212857Y-84654985D01*
X95180477Y-85320223D02*
X96148096Y-85320223D01*
X97115715Y-85199271D02*
X96390000Y-85199271D01*
X96752857Y-85199271D02*
X96752857Y-83929271D01*
X96752857Y-83929271D02*
X96631905Y-84110699D01*
X96631905Y-84110699D02*
X96510953Y-84231652D01*
X96510953Y-84231652D02*
X96390000Y-84292128D01*
X97720477Y-85199271D02*
X97962381Y-85199271D01*
X97962381Y-85199271D02*
X98083334Y-85138795D01*
X98083334Y-85138795D02*
X98143810Y-85078318D01*
X98143810Y-85078318D02*
X98264762Y-84896890D01*
X98264762Y-84896890D02*
X98325239Y-84654985D01*
X98325239Y-84654985D02*
X98325239Y-84171175D01*
X98325239Y-84171175D02*
X98264762Y-84050223D01*
X98264762Y-84050223D02*
X98204286Y-83989747D01*
X98204286Y-83989747D02*
X98083334Y-83929271D01*
X98083334Y-83929271D02*
X97841429Y-83929271D01*
X97841429Y-83929271D02*
X97720477Y-83989747D01*
X97720477Y-83989747D02*
X97660000Y-84050223D01*
X97660000Y-84050223D02*
X97599524Y-84171175D01*
X97599524Y-84171175D02*
X97599524Y-84473556D01*
X97599524Y-84473556D02*
X97660000Y-84594509D01*
X97660000Y-84594509D02*
X97720477Y-84654985D01*
X97720477Y-84654985D02*
X97841429Y-84715461D01*
X97841429Y-84715461D02*
X98083334Y-84715461D01*
X98083334Y-84715461D02*
X98204286Y-84654985D01*
X98204286Y-84654985D02*
X98264762Y-84594509D01*
X98264762Y-84594509D02*
X98325239Y-84473556D01*
X98748572Y-85199271D02*
X99413810Y-84352604D01*
X98748572Y-84352604D02*
X99413810Y-85199271D01*
X100562858Y-85199271D02*
X99837143Y-85199271D01*
X100200000Y-85199271D02*
X100200000Y-83929271D01*
X100200000Y-83929271D02*
X100079048Y-84110699D01*
X100079048Y-84110699D02*
X99958096Y-84231652D01*
X99958096Y-84231652D02*
X99837143Y-84292128D01*
X101167620Y-85199271D02*
X101409524Y-85199271D01*
X101409524Y-85199271D02*
X101530477Y-85138795D01*
X101530477Y-85138795D02*
X101590953Y-85078318D01*
X101590953Y-85078318D02*
X101711905Y-84896890D01*
X101711905Y-84896890D02*
X101772382Y-84654985D01*
X101772382Y-84654985D02*
X101772382Y-84171175D01*
X101772382Y-84171175D02*
X101711905Y-84050223D01*
X101711905Y-84050223D02*
X101651429Y-83989747D01*
X101651429Y-83989747D02*
X101530477Y-83929271D01*
X101530477Y-83929271D02*
X101288572Y-83929271D01*
X101288572Y-83929271D02*
X101167620Y-83989747D01*
X101167620Y-83989747D02*
X101107143Y-84050223D01*
X101107143Y-84050223D02*
X101046667Y-84171175D01*
X101046667Y-84171175D02*
X101046667Y-84473556D01*
X101046667Y-84473556D02*
X101107143Y-84594509D01*
X101107143Y-84594509D02*
X101167620Y-84654985D01*
X101167620Y-84654985D02*
X101288572Y-84715461D01*
X101288572Y-84715461D02*
X101530477Y-84715461D01*
X101530477Y-84715461D02*
X101651429Y-84654985D01*
X101651429Y-84654985D02*
X101711905Y-84594509D01*
X101711905Y-84594509D02*
X101772382Y-84473556D01*
X102014287Y-85320223D02*
X102981906Y-85320223D01*
X103102858Y-83929271D02*
X103526191Y-85199271D01*
X103526191Y-85199271D02*
X103949525Y-83929271D01*
X104251905Y-83929271D02*
X105038096Y-83929271D01*
X105038096Y-83929271D02*
X104614762Y-84413080D01*
X104614762Y-84413080D02*
X104796191Y-84413080D01*
X104796191Y-84413080D02*
X104917143Y-84473556D01*
X104917143Y-84473556D02*
X104977619Y-84534033D01*
X104977619Y-84534033D02*
X105038096Y-84654985D01*
X105038096Y-84654985D02*
X105038096Y-84957366D01*
X105038096Y-84957366D02*
X104977619Y-85078318D01*
X104977619Y-85078318D02*
X104917143Y-85138795D01*
X104917143Y-85138795D02*
X104796191Y-85199271D01*
X104796191Y-85199271D02*
X104433334Y-85199271D01*
X104433334Y-85199271D02*
X104312381Y-85138795D01*
X104312381Y-85138795D02*
X104251905Y-85078318D01*
X105582381Y-85078318D02*
X105642858Y-85138795D01*
X105642858Y-85138795D02*
X105582381Y-85199271D01*
X105582381Y-85199271D02*
X105521905Y-85138795D01*
X105521905Y-85138795D02*
X105582381Y-85078318D01*
X105582381Y-85078318D02*
X105582381Y-85199271D01*
X106731429Y-84352604D02*
X106731429Y-85199271D01*
X106429048Y-83868795D02*
X106126667Y-84775937D01*
X106126667Y-84775937D02*
X106912858Y-84775937D01*
D12*
%TO.P,C1,1*%
%TO.N,Net-(U1-RF_OUT)*%
X-4633251Y6036279D03*
%TO.P,C1,2*%
%TO.N,Net-(C1-Pad2)*%
X-4633251Y7586279D03*
%TD*%
D13*
%TO.P,R8,1*%
%TO.N,Net-(C1-Pad2)*%
X-3171249Y6796279D03*
%TO.P,R8,2*%
%TO.N,Net-(C8-Pad2)*%
X-1521249Y6796279D03*
%TD*%
D12*
%TO.P,C2,1*%
%TO.N,Net-(C2-Pad1)*%
X-10340000Y1822371D03*
%TO.P,C2,2*%
%TO.N,Net-(U1-RF_IN)*%
X-10340000Y3372371D03*
%TD*%
D14*
%TO.P,L2,1*%
%TO.N,Net-(U2-OUT)*%
X-4664845Y2798779D03*
%TO.P,L2,2*%
%TO.N,Net-(U1-RF_OUT)*%
X-4664845Y4373779D03*
%TD*%
D15*
%TO.P,R2,1*%
%TO.N,Net-(C1-Pad2)*%
X-3130000Y5336279D03*
%TO.P,R2,2*%
%TO.N,GND*%
X-3130000Y3686279D03*
%TD*%
D16*
%TO.P,H3,1,1*%
%TO.N,GND*%
X1900000Y-6900000D03*
%TD*%
D12*
%TO.P,C10,1*%
%TO.N,Net-(D1-A)*%
X1840000Y-3415000D03*
%TO.P,C10,2*%
%TO.N,GND*%
X1840000Y-1865000D03*
%TD*%
D17*
%TO.P,C3,1*%
%TO.N,Net-(U2-OUT)*%
X-6165000Y3980000D03*
%TO.P,C3,2*%
%TO.N,GND*%
X-7715000Y3980000D03*
%TD*%
D18*
%TO.P,J1,1,1*%
%TO.N,Net-(C2-Pad1)*%
X-10300000Y0D03*
%TD*%
D19*
%TO.P,D1,1,K*%
%TO.N,Net-(D1-K)*%
X-7820000Y2530000D03*
%TO.P,D1,2,A*%
%TO.N,Net-(D1-A)*%
X-6420000Y2530000D03*
%TD*%
D20*
%TO.P,U2,1,OUT*%
%TO.N,Net-(U2-OUT)*%
X-3265000Y415000D03*
D21*
%TO.P,U2,2,GND*%
%TO.N,GND*%
X-5545000Y-5885000D03*
D20*
%TO.P,U2,3,IN*%
%TO.N,Net-(D1-K)*%
X-7825000Y415000D03*
%TD*%
D15*
%TO.P,R7,1*%
%TO.N,Net-(C8-Pad2)*%
X-1606859Y5336279D03*
%TO.P,R7,2*%
%TO.N,GND*%
X-1606859Y3686279D03*
%TD*%
D22*
%TO.P,C9,1*%
%TO.N,Net-(C8-Pad2)*%
X320000Y3325000D03*
%TO.P,C9,2*%
%TO.N,Net-(C9-Pad2)*%
X320000Y1775000D03*
%TD*%
%TO.P,C4,1*%
%TO.N,Net-(U2-OUT)*%
X-1250000Y-1890000D03*
%TO.P,C4,2*%
%TO.N,GND*%
X-1250000Y-3440000D03*
%TD*%
D23*
%TO.P,C8,1*%
%TO.N,Net-(C1-Pad2)*%
X-3140511Y8336279D03*
%TO.P,C8,2*%
%TO.N,Net-(C8-Pad2)*%
X-1590511Y8336279D03*
%TD*%
D24*
%TO.P,U1,1,GND*%
%TO.N,GND*%
X-8370000Y7082500D03*
%TO.P,U1,2,RF_IN*%
%TO.N,Net-(U1-RF_IN)*%
X-8370000Y6582500D03*
%TO.P,U1,3,GND*%
%TO.N,GND*%
X-8370000Y6082500D03*
%TO.P,U1,4,GND*%
X-8370000Y5582500D03*
%TO.P,U1,5,GND*%
X-6370000Y5582500D03*
%TO.P,U1,6,~{EN}*%
X-6370000Y6082500D03*
%TO.P,U1,7,RF_OUT*%
%TO.N,Net-(U1-RF_OUT)*%
X-6370000Y6582500D03*
%TO.P,U1,8,GND*%
%TO.N,GND*%
X-6370000Y7082500D03*
D25*
%TO.P,U1,9,GND*%
X-7370000Y6332500D03*
%TD*%
D22*
%TO.P,C5,1*%
%TO.N,Net-(D1-K)*%
X-9830000Y-3215000D03*
%TO.P,C5,2*%
%TO.N,GND*%
X-9830000Y-4765000D03*
%TD*%
D26*
%TO.P,L5,1*%
%TO.N,Net-(C2-Pad1)*%
X-11795000Y1950000D03*
%TO.P,L5,2*%
%TO.N,GND*%
X-13370000Y1950000D03*
%TD*%
D18*
%TO.P,J2,1,1*%
%TO.N,Net-(C9-Pad2)*%
X300000Y0D03*
%TD*%
D27*
%TO.P,FB1,1*%
%TO.N,Net-(FB1-Pad1)*%
X-12900000Y-3360000D03*
%TO.P,FB1,2*%
%TO.N,Net-(D1-K)*%
X-11325000Y-3360000D03*
%TD*%
D16*
%TO.P,H2,1,1*%
%TO.N,GND*%
X1900000Y6900000D03*
%TD*%
D14*
%TO.P,L1,1*%
%TO.N,Net-(D1-A)*%
X310000Y-3432500D03*
%TO.P,L1,2*%
%TO.N,Net-(C9-Pad2)*%
X310000Y-1857500D03*
%TD*%
D18*
%TO.P,J3,1,1*%
%TO.N,Net-(FB1-Pad1)*%
X-12250000Y-5140000D03*
%TD*%
D16*
%TO.P,H1,1,1*%
%TO.N,GND*%
X-11900000Y6900000D03*
%TD*%
D28*
%TO.N,GND*%
X-520000Y-8840000D03*
X-9340000Y4260000D03*
X-840000Y-80000D03*
X2660000Y1420000D03*
X-4680000Y1430000D03*
X-7375000Y7230000D03*
X-6080000Y8850000D03*
X-650000Y1270000D03*
X1540000Y1430000D03*
X-11700000Y-1460000D03*
X2705000Y-1865000D03*
X-1250000Y-4260000D03*
X-11370000Y4330000D03*
X1280000Y3620000D03*
X-12750000Y-1470000D03*
X-7825000Y-4507446D03*
X-840000Y620000D03*
X1280000Y4540000D03*
X-7825000Y-3176223D03*
X-8305000Y7625000D03*
X-3735000Y-5856223D03*
X-11370000Y3630000D03*
X-11370000Y2930000D03*
X-670000Y4110000D03*
X-9340000Y5030000D03*
X-7025000Y5060000D03*
X-650000Y3400000D03*
X-13740000Y-1470000D03*
X-13730000Y-5180000D03*
X-3130000Y2890000D03*
X3820000Y-4690000D03*
X-9330000Y1740000D03*
X-6365000Y7625000D03*
X3750000Y-1490000D03*
X-3725000Y-8705000D03*
X-13370000Y2860000D03*
X-12160000Y2930000D03*
X-7370000Y8840000D03*
X-9210000Y8840000D03*
X-7825000Y-7347446D03*
X-9110000Y260000D03*
X-9930000Y-1180000D03*
X-7370000Y5520000D03*
X-820000Y-790000D03*
X-7725000Y5060000D03*
X-3725000Y-7336223D03*
X-9120000Y-1150000D03*
X-10800000Y-1190000D03*
X-5670000Y-5871223D03*
X-3725000Y-4496223D03*
X-9110000Y-440000D03*
X-7370000Y8050000D03*
X-9340000Y2570000D03*
X-7835000Y-5867446D03*
X-8370000Y5065000D03*
X-650000Y2000000D03*
X1280000Y2630000D03*
X-5660000Y-7351223D03*
X-13740000Y4700000D03*
X-3725000Y-3165000D03*
X-5660000Y-4511223D03*
X3780000Y4770000D03*
X-5660000Y-3180000D03*
X3780000Y1440000D03*
X-7825000Y-8716223D03*
X-9100000Y960000D03*
X-490000Y6690000D03*
X-9340000Y3400000D03*
X-7370000Y6340000D03*
X-650000Y2700000D03*
X-6375000Y5075000D03*
X-5660000Y-8720000D03*
X-670000Y4810000D03*
X-80000Y8820000D03*
X-13740000Y3610000D03*
X-1606859Y2870000D03*
%TD*%
D29*
%TO.N,GND*%
X-8295000Y7110000D02*
X-8305000Y7100000D01*
X-8370000Y5065000D02*
X-8370000Y5590000D01*
X-6375000Y5075000D02*
X-6375000Y6085000D01*
X-6365000Y7625000D02*
X-6365000Y7425000D01*
D30*
X-1250000Y-4260000D02*
X-1250000Y-3440000D01*
D29*
X-8370000Y5590000D02*
X-8370000Y6085600D01*
D31*
X-1606859Y2870000D02*
X-1606859Y3686279D01*
D29*
X-6365000Y7425000D02*
X-6370000Y7420000D01*
X-6375000Y5075000D02*
X-6375000Y5470000D01*
X-6375000Y6085000D02*
X-6370000Y6090000D01*
D30*
X-13370000Y2860000D02*
X-13370000Y1950000D01*
D29*
X-6370000Y7420000D02*
X-6370000Y7090000D01*
X-8295000Y7615000D02*
X-8295000Y7110000D01*
D30*
X2705000Y-1865000D02*
X1840000Y-1865000D01*
D31*
X-3130000Y2890000D02*
X-3130000Y3686279D01*
D29*
X-8305000Y7625000D02*
X-8295000Y7615000D01*
D30*
%TO.N,Net-(U2-OUT)*%
X-3265000Y415000D02*
X-3265000Y235000D01*
X-1250000Y-1780000D02*
X-1250000Y-1890000D01*
X-3265000Y235000D02*
X-1250000Y-1780000D01*
X-1255000Y-1885000D02*
X-1250000Y-1890000D01*
X-4664845Y2798779D02*
X-3265000Y1398934D01*
X-6165000Y3965000D02*
X-4998779Y2798779D01*
X-6165000Y3980000D02*
X-6165000Y3965000D01*
X-3265000Y1398934D02*
X-3265000Y415000D01*
X-4998779Y2798779D02*
X-4664845Y2798779D01*
D32*
%TO.N,Net-(FB1-Pad1)*%
X-12900000Y-4490000D02*
X-12900000Y-3360000D01*
X-12250000Y-5140000D02*
X-12900000Y-4490000D01*
D33*
%TO.N,Net-(C1-Pad2)*%
X-3171249Y6796279D02*
X-3171249Y6951279D01*
D30*
X-3468251Y6796279D02*
X-3171249Y6796279D01*
X-4633251Y7586279D02*
X-4258251Y7586279D01*
X-3175026Y6800056D02*
X-3171249Y6796279D01*
D33*
X-3166249Y6956279D02*
X-3166249Y8586279D01*
X-3131249Y5335030D02*
X-3131249Y5246279D01*
X-3171249Y6796279D02*
X-3171249Y5377528D01*
X-3171249Y5377528D02*
X-3130000Y5336279D01*
X-3130000Y5336279D02*
X-3131249Y5335030D01*
D30*
X-4258251Y7586279D02*
X-3468251Y6796279D01*
D33*
X-3171249Y6951279D02*
X-3166249Y6956279D01*
%TO.N,Net-(C2-Pad1)*%
X-10340000Y1822371D02*
X-11667371Y1822371D01*
X-10340000Y1822371D02*
X-10352500Y1809871D01*
X-11667371Y1822371D02*
X-11795000Y1950000D01*
D30*
X-10330000Y1812371D02*
X-10330000Y-819D01*
X-10340000Y1822371D02*
X-10330000Y1812371D01*
%TO.N,Net-(D1-K)*%
X-11325000Y-3360000D02*
X-9975000Y-3360000D01*
X-9975000Y-3360000D02*
X-9830000Y-3215000D01*
X-7825000Y2495000D02*
X-7820000Y2500000D01*
X-7820000Y2500000D02*
X-7820000Y2530000D01*
X-7825000Y-1210000D02*
X-7825000Y415000D01*
X-7825000Y415000D02*
X-7825000Y2495000D01*
X-9830000Y-3215000D02*
X-7825000Y-1210000D01*
%TO.N,Net-(C8-Pad2)*%
X320000Y4840000D02*
X320000Y3325000D01*
X-1625000Y6785000D02*
X320000Y4840000D01*
X342450Y3367064D02*
X320000Y3344614D01*
D33*
X-1495511Y8241279D02*
X-1590511Y8336279D01*
X-1521249Y5421889D02*
X-1606859Y5336279D01*
X-1521249Y6796279D02*
X-1521249Y8491279D01*
D30*
X320000Y3344614D02*
X320000Y3325000D01*
D33*
X-1521249Y6796279D02*
X-1521249Y5421889D01*
D30*
%TO.N,Net-(C9-Pad2)*%
X320000Y1745000D02*
X320000Y1775000D01*
X300000Y1725000D02*
X320000Y1745000D01*
X300000Y-1847500D02*
X310000Y-1857500D01*
X300000Y0D02*
X300000Y1725000D01*
D33*
X300000Y0D02*
X300000Y-1847500D01*
D30*
%TO.N,Net-(D1-A)*%
X-2240000Y-4450000D02*
X-1832800Y-4857200D01*
X-1832800Y-4857200D02*
X-727200Y-4857200D01*
X-727200Y-4857200D02*
X310000Y-3820000D01*
X310000Y-3432500D02*
X1822500Y-3432500D01*
X1822500Y-3432500D02*
X1840000Y-3415000D01*
X-6420000Y1476852D02*
X-2240000Y-2703148D01*
X-2240000Y-2703148D02*
X-2240000Y-4450000D01*
X310000Y-3820000D02*
X310000Y-3432500D01*
X-6420000Y2530000D02*
X-6420000Y1476852D01*
%TO.N,Net-(U1-RF_OUT)*%
X-5176972Y6580000D02*
X-4625791Y6028819D01*
X-6665000Y6580000D02*
X-5176972Y6580000D01*
D33*
X-4643251Y6026279D02*
X-4643251Y4395373D01*
D30*
X-4633251Y6036279D02*
X-4643251Y6026279D01*
X-4625791Y6028819D02*
X-4625451Y6028819D01*
%TO.N,Net-(U1-RF_IN)*%
X-10340000Y3372371D02*
X-10340000Y5078990D01*
X-10340000Y5078990D02*
X-8836490Y6582500D01*
X-8836490Y6582500D02*
X-8370000Y6582500D01*
%TD*%
%TA.AperFunction,Conductor*%
%TO.N,GND*%
G36*
X-6719297Y1108618D02*
G01*
X-6712819Y1102586D01*
X-2748019Y-2862214D01*
X-2714534Y-2923537D01*
X-2711700Y-2949895D01*
X-2711700Y-4387899D01*
X-2711700Y-4512101D01*
X-2679554Y-4632069D01*
X-2617454Y-4739631D01*
X-2122431Y-5234654D01*
X-2014869Y-5296754D01*
X-1894901Y-5328900D01*
X-1894900Y-5328900D01*
X-1894899Y-5328900D01*
X-665101Y-5328900D01*
X-665099Y-5328900D01*
X-545131Y-5296754D01*
X-437569Y-5234654D01*
X598949Y-4198133D01*
X660270Y-4164650D01*
X671839Y-4162701D01*
X690346Y-4160479D01*
X823132Y-4108115D01*
X936867Y-4021867D01*
X979664Y-3965429D01*
X1035855Y-3923907D01*
X1105577Y-3919354D01*
X1166691Y-3953219D01*
X1177269Y-3965426D01*
X1177326Y-3965500D01*
X1214923Y-4015079D01*
X1330023Y-4102363D01*
X1330024Y-4102363D01*
X1330025Y-4102364D01*
X1464410Y-4155359D01*
X1548856Y-4165500D01*
X1548862Y-4165500D01*
X2131138Y-4165500D01*
X2131144Y-4165500D01*
X2215590Y-4155359D01*
X2349975Y-4102364D01*
X2465078Y-4015078D01*
X2552364Y-3899975D01*
X2605359Y-3765590D01*
X2615500Y-3681144D01*
X2615500Y-3148856D01*
X2605359Y-3064410D01*
X2552364Y-2930025D01*
X2552363Y-2930024D01*
X2552363Y-2930023D01*
X2465078Y-2814921D01*
X2349976Y-2727636D01*
X2215588Y-2674640D01*
X2172242Y-2669435D01*
X2131144Y-2664500D01*
X1548856Y-2664500D01*
X1510841Y-2669065D01*
X1464411Y-2674640D01*
X1330023Y-2727636D01*
X1214920Y-2814922D01*
X1164000Y-2882070D01*
X1107807Y-2923593D01*
X1038086Y-2928144D01*
X984223Y-2901055D01*
X974306Y-2892504D01*
X936867Y-2843133D01*
X823132Y-2756885D01*
X811868Y-2752443D01*
X796174Y-2738911D01*
X783671Y-2719561D01*
X767589Y-2703075D01*
X765072Y-2690774D01*
X758256Y-2680225D01*
X758199Y-2657188D01*
X753583Y-2634624D01*
X758116Y-2622913D01*
X758086Y-2610355D01*
X770491Y-2590947D01*
X778808Y-2569466D01*
X790946Y-2558948D01*
X795717Y-2551485D01*
X803900Y-2547723D01*
X816378Y-2536912D01*
X823126Y-2533117D01*
X823132Y-2533115D01*
X936867Y-2446867D01*
X1023115Y-2333132D01*
X1075479Y-2200346D01*
X1085500Y-2116902D01*
X1085500Y-1598098D01*
X1075479Y-1514654D01*
X1023115Y-1381868D01*
X1009610Y-1364059D01*
X936867Y-1268132D01*
X823134Y-1181886D01*
X823130Y-1181884D01*
X729009Y-1144767D01*
X712419Y-1131858D01*
X693297Y-1123126D01*
X685396Y-1110832D01*
X673866Y-1101861D01*
X666888Y-1082033D01*
X655523Y-1064348D01*
X651970Y-1039639D01*
X650673Y-1035953D01*
X650500Y-1029413D01*
X650500Y-924499D01*
X670185Y-857460D01*
X722989Y-811705D01*
X774500Y-800499D01*
X844856Y-800499D01*
X844864Y-800499D01*
X865342Y-798124D01*
X934203Y-809953D01*
X985737Y-857134D01*
X999403Y-889203D01*
X1019977Y-965984D01*
X1019982Y-965995D01*
X1059535Y-1034504D01*
X1059539Y-1034509D01*
X1059540Y-1034511D01*
X1115489Y-1090460D01*
X1115491Y-1090461D01*
X1115495Y-1090464D01*
X1171133Y-1122586D01*
X1184011Y-1130021D01*
X1260438Y-1150500D01*
X1339562Y-1150500D01*
X3975500Y-1150500D01*
X4042539Y-1170185D01*
X4088294Y-1222989D01*
X4099500Y-1274500D01*
X4099500Y-6896249D01*
X4099274Y-6903736D01*
X4083915Y-7157635D01*
X4082110Y-7172499D01*
X4036938Y-7418998D01*
X4033354Y-7433538D01*
X3958800Y-7672788D01*
X3953491Y-7686788D01*
X3850638Y-7915319D01*
X3843679Y-7928578D01*
X3714033Y-8143039D01*
X3705527Y-8155362D01*
X3550972Y-8352636D01*
X3541042Y-8363844D01*
X3363844Y-8541042D01*
X3352636Y-8550972D01*
X3155362Y-8705527D01*
X3143039Y-8714033D01*
X2928578Y-8843679D01*
X2915319Y-8850638D01*
X2686788Y-8953491D01*
X2672788Y-8958800D01*
X2433538Y-9033354D01*
X2418998Y-9036938D01*
X2172499Y-9082110D01*
X2157635Y-9083915D01*
X1903736Y-9099274D01*
X1896249Y-9099500D01*
X-9675500Y-9099500D01*
X-9742539Y-9079815D01*
X-9788294Y-9027011D01*
X-9799500Y-8975500D01*
X-9799500Y-6100439D01*
X-9819980Y-6024009D01*
X-9819983Y-6024004D01*
X-9859536Y-5955495D01*
X-9859542Y-5955487D01*
X-9915488Y-5899541D01*
X-9915496Y-5899535D01*
X-9984005Y-5859982D01*
X-9984010Y-5859979D01*
X-10009487Y-5853152D01*
X-10060438Y-5839500D01*
X-10060440Y-5839500D01*
X-11328222Y-5839500D01*
X-11395261Y-5819815D01*
X-11441016Y-5767011D01*
X-11451396Y-5701210D01*
X-11450505Y-5693526D01*
X-11449500Y-5684865D01*
X-11449501Y-4595136D01*
X-11449503Y-4595117D01*
X-11452414Y-4570012D01*
X-11452415Y-4570010D01*
X-11452415Y-4570009D01*
X-11497794Y-4467235D01*
X-11577235Y-4387794D01*
X-11680009Y-4342415D01*
X-11705135Y-4339500D01*
X-11790035Y-4339500D01*
X-12300850Y-4339500D01*
X-12367889Y-4319815D01*
X-12413644Y-4267011D01*
X-12424850Y-4215500D01*
X-12424850Y-4135069D01*
X-12405165Y-4068030D01*
X-12375778Y-4036267D01*
X-12310633Y-3986867D01*
X-12224385Y-3873132D01*
X-12224383Y-3873126D01*
X-12220588Y-3866378D01*
X-12170575Y-3817589D01*
X-12102124Y-3803583D01*
X-12036966Y-3828808D01*
X-12004412Y-3866378D01*
X-12000614Y-3873134D01*
X-11914368Y-3986867D01*
X-11807338Y-4068030D01*
X-11800632Y-4073115D01*
X-11667846Y-4125479D01*
X-11584402Y-4135500D01*
X-11548345Y-4135500D01*
X-11065598Y-4135500D01*
X-10982154Y-4125479D01*
X-10849368Y-4073115D01*
X-10735633Y-3986867D01*
X-10655181Y-3880774D01*
X-10651825Y-3878294D01*
X-10650090Y-3874497D01*
X-10623962Y-3857705D01*
X-10598989Y-3839252D01*
X-10593823Y-3838336D01*
X-10591312Y-3836723D01*
X-10556377Y-3831700D01*
X-10474859Y-3831700D01*
X-10407820Y-3851385D01*
X-10399934Y-3856896D01*
X-10339977Y-3902363D01*
X-10339976Y-3902363D01*
X-10339975Y-3902364D01*
X-10205590Y-3955359D01*
X-10121144Y-3965500D01*
X-10121138Y-3965500D01*
X-9538862Y-3965500D01*
X-9538856Y-3965500D01*
X-9454410Y-3955359D01*
X-9320025Y-3902364D01*
X-9204922Y-3815078D01*
X-9117636Y-3699975D01*
X-9064641Y-3565590D01*
X-9054500Y-3481144D01*
X-9054500Y-3157946D01*
X-9034815Y-3090907D01*
X-9018181Y-3070265D01*
X-8281048Y-2333132D01*
X-7447547Y-1499631D01*
X-7442199Y-1490369D01*
X-7416263Y-1445446D01*
X-7385446Y-1392070D01*
X-7376833Y-1359924D01*
X-7353300Y-1272100D01*
X-7353300Y-1063161D01*
X-7333615Y-996122D01*
X-7280811Y-950367D01*
X-7274802Y-947810D01*
X-7202658Y-919361D01*
X-7082078Y-827922D01*
X-6990639Y-707342D01*
X-6935123Y-566564D01*
X-6924500Y-478102D01*
X-6924500Y1014905D01*
X-6904815Y1081944D01*
X-6852011Y1127699D01*
X-6782853Y1137643D01*
X-6719297Y1108618D01*
G37*
%TD.AperFunction*%
%TA.AperFunction,Conductor*%
G36*
X-3818447Y9079815D02*
G01*
X-3772692Y9027011D01*
X-3762748Y8957853D01*
X-3786682Y8900576D01*
X-3801158Y8881487D01*
X-3827876Y8846254D01*
X-3880871Y8711868D01*
X-3886446Y8665438D01*
X-3891011Y8627423D01*
X-3891011Y8627417D01*
X-3891011Y8347165D01*
X-3910696Y8280126D01*
X-3963500Y8234371D01*
X-4032658Y8224427D01*
X-4089936Y8248361D01*
X-4123275Y8273643D01*
X-4257663Y8326639D01*
X-4301009Y8331844D01*
X-4342107Y8336779D01*
X-4924395Y8336779D01*
X-4962410Y8332214D01*
X-5008840Y8326639D01*
X-5143228Y8273643D01*
X-5258330Y8186358D01*
X-5345615Y8071256D01*
X-5398611Y7936868D01*
X-5400377Y7922159D01*
X-5408751Y7852423D01*
X-5408751Y7320135D01*
X-5398610Y7235690D01*
X-5392892Y7221189D01*
X-5386611Y7151602D01*
X-5418949Y7089666D01*
X-5479638Y7055045D01*
X-5508247Y7051700D01*
X-6727100Y7051700D01*
X-6799082Y7032413D01*
X-6847071Y7019554D01*
X-6847072Y7019553D01*
X-6954627Y6957457D01*
X-6954632Y6957453D01*
X-7042453Y6869632D01*
X-7042457Y6869627D01*
X-7104553Y6762072D01*
X-7104554Y6762071D01*
X-7120627Y6702085D01*
X-7136700Y6642100D01*
X-7136700Y6517900D01*
X-7124777Y6473403D01*
X-7104554Y6397930D01*
X-7104553Y6397929D01*
X-7042457Y6290374D01*
X-7042455Y6290371D01*
X-7042454Y6290370D01*
X-6954630Y6202546D01*
X-6847069Y6140446D01*
X-6727100Y6108300D01*
X-5532751Y6108300D01*
X-5465712Y6088615D01*
X-5419957Y6035811D01*
X-5408751Y5984300D01*
X-5408751Y5770135D01*
X-5403426Y5725785D01*
X-5398611Y5685691D01*
X-5345615Y5551303D01*
X-5258330Y5436201D01*
X-5143227Y5348915D01*
X-5107534Y5334840D01*
X-5073356Y5321362D01*
X-5018211Y5278456D01*
X-4995018Y5212548D01*
X-5011138Y5144564D01*
X-5061455Y5096087D01*
X-5073354Y5090653D01*
X-5177976Y5049395D01*
X-5177980Y5049393D01*
X-5291713Y4963147D01*
X-5377959Y4849414D01*
X-5377960Y4849411D01*
X-5430324Y4716625D01*
X-5430325Y4716623D01*
X-5433240Y4709229D01*
X-5435053Y4709944D01*
X-5465257Y4658781D01*
X-5527667Y4627368D01*
X-5597153Y4634684D01*
X-5624878Y4650545D01*
X-5680024Y4692364D01*
X-5814412Y4745360D01*
X-5857758Y4750565D01*
X-5898856Y4755500D01*
X-6431144Y4755500D01*
X-6469159Y4750935D01*
X-6515589Y4745360D01*
X-6649977Y4692364D01*
X-6765079Y4605079D01*
X-6852364Y4489977D01*
X-6905360Y4355589D01*
X-6910935Y4309159D01*
X-6915500Y4271144D01*
X-6915500Y3688856D01*
X-6912252Y3661813D01*
X-6905360Y3604412D01*
X-6852364Y3470024D01*
X-6790273Y3388146D01*
X-6765078Y3354922D01*
X-6754305Y3346753D01*
X-6712782Y3290562D01*
X-6708228Y3220841D01*
X-6742092Y3159726D01*
X-6775567Y3138831D01*
X-6774669Y3137133D01*
X-6782883Y3132793D01*
X-6892150Y3052150D01*
X-6972793Y2942883D01*
X-6972794Y2942881D01*
X-7002959Y2856674D01*
X-7043681Y2799898D01*
X-7108634Y2774151D01*
X-7177195Y2787608D01*
X-7227598Y2835995D01*
X-7237041Y2856674D01*
X-7267207Y2942881D01*
X-7267208Y2942883D01*
X-7290476Y2974410D01*
X-7347850Y3052150D01*
X-7457118Y3132793D01*
X-7457120Y3132794D01*
X-7585300Y3177647D01*
X-7615730Y3180500D01*
X-7615734Y3180500D01*
X-8024266Y3180500D01*
X-8024270Y3180500D01*
X-8054700Y3177647D01*
X-8054702Y3177647D01*
X-8182881Y3132794D01*
X-8182883Y3132793D01*
X-8292150Y3052150D01*
X-8372793Y2942883D01*
X-8372794Y2942881D01*
X-8417647Y2814702D01*
X-8417647Y2814700D01*
X-8420500Y2784270D01*
X-8420500Y2275731D01*
X-8417647Y2245301D01*
X-8417647Y2245299D01*
X-8374909Y2123164D01*
X-8372793Y2117118D01*
X-8320930Y2046847D01*
X-8313474Y2026433D01*
X-8301723Y2008148D01*
X-8298431Y1985246D01*
X-8296959Y1981218D01*
X-8296700Y1973213D01*
X-8296700Y1893162D01*
X-8316385Y1826123D01*
X-8369189Y1780368D01*
X-8375209Y1777808D01*
X-8447342Y1749362D01*
X-8567923Y1657923D01*
X-8659361Y1537344D01*
X-8714878Y1396562D01*
X-8720538Y1349425D01*
X-8725500Y1308102D01*
X-8725500Y-478102D01*
X-8719874Y-524954D01*
X-8714878Y-566561D01*
X-8714878Y-566563D01*
X-8714877Y-566564D01*
X-8713525Y-569993D01*
X-8659361Y-707343D01*
X-8567923Y-827922D01*
X-8447342Y-919361D01*
X-8446859Y-919552D01*
X-8446484Y-919844D01*
X-8439948Y-923519D01*
X-8440500Y-924500D01*
X-8391717Y-962459D01*
X-8368525Y-1028368D01*
X-8384648Y-1096352D01*
X-8404672Y-1122586D01*
X-9710266Y-2428181D01*
X-9771589Y-2461666D01*
X-9797947Y-2464500D01*
X-10121144Y-2464500D01*
X-10159159Y-2469065D01*
X-10205589Y-2474640D01*
X-10339977Y-2527636D01*
X-10455079Y-2614922D01*
X-10541374Y-2728718D01*
X-10597566Y-2770241D01*
X-10667288Y-2774792D01*
X-10728401Y-2740927D01*
X-10732059Y-2736706D01*
X-10735631Y-2733134D01*
X-10849366Y-2646886D01*
X-10849368Y-2646885D01*
X-10982154Y-2594521D01*
X-10982155Y-2594520D01*
X-10982157Y-2594520D01*
X-11065598Y-2584500D01*
X-11584402Y-2584500D01*
X-11667844Y-2594520D01*
X-11667845Y-2594520D01*
X-11800635Y-2646886D01*
X-11914368Y-2733132D01*
X-12000616Y-2846868D01*
X-12004414Y-2853624D01*
X-12054428Y-2902412D01*
X-12122880Y-2916416D01*
X-12188037Y-2891188D01*
X-12220586Y-2853624D01*
X-12224385Y-2846868D01*
X-12310633Y-2733132D01*
X-12424366Y-2646886D01*
X-12424368Y-2646885D01*
X-12557154Y-2594521D01*
X-12557155Y-2594520D01*
X-12557157Y-2594520D01*
X-12640598Y-2584500D01*
X-13159402Y-2584500D01*
X-13242844Y-2594520D01*
X-13242845Y-2594520D01*
X-13375635Y-2646886D01*
X-13489368Y-2733132D01*
X-13575614Y-2846865D01*
X-13627980Y-2979655D01*
X-13627980Y-2979656D01*
X-13638000Y-3063097D01*
X-13638000Y-3656902D01*
X-13627980Y-3740343D01*
X-13627980Y-3740344D01*
X-13627979Y-3740346D01*
X-13581699Y-3857705D01*
X-13575614Y-3873134D01*
X-13505570Y-3965500D01*
X-13489367Y-3986867D01*
X-13424225Y-4036266D01*
X-13382702Y-4092456D01*
X-13375150Y-4135069D01*
X-13375150Y-4427445D01*
X-13375150Y-4552555D01*
X-13342769Y-4673401D01*
X-13304532Y-4739631D01*
X-13280216Y-4781747D01*
X-13280214Y-4781750D01*
X-13086819Y-4975145D01*
X-13053334Y-5036468D01*
X-13050500Y-5062826D01*
X-13050500Y-5684856D01*
X-13050498Y-5684877D01*
X-13048603Y-5701214D01*
X-13060433Y-5770075D01*
X-13107613Y-5821609D01*
X-13171777Y-5839500D01*
X-13975500Y-5839500D01*
X-14042539Y-5819815D01*
X-14088294Y-5767011D01*
X-14099500Y-5715500D01*
X-14099500Y-1274500D01*
X-14079815Y-1207461D01*
X-14027011Y-1161706D01*
X-13975500Y-1150500D01*
X-11260440Y-1150500D01*
X-11260438Y-1150500D01*
X-11184011Y-1130021D01*
X-11115489Y-1090460D01*
X-11059540Y-1034511D01*
X-11019979Y-965989D01*
X-10999500Y-889562D01*
X-10999500Y-889558D01*
X-10999405Y-889204D01*
X-10963040Y-829544D01*
X-10900193Y-799015D01*
X-10865336Y-798125D01*
X-10844865Y-800500D01*
X-9755136Y-800499D01*
X-9755121Y-800497D01*
X-9755118Y-800497D01*
X-9730013Y-797586D01*
X-9730012Y-797585D01*
X-9730009Y-797585D01*
X-9627235Y-752206D01*
X-9547794Y-672765D01*
X-9502415Y-569991D01*
X-9499500Y-544865D01*
X-9499501Y544864D01*
X-9499503Y544883D01*
X-9502414Y569988D01*
X-9502415Y569990D01*
X-9502415Y569991D01*
X-9547794Y672765D01*
X-9627235Y752206D01*
X-9627237Y752207D01*
X-9730008Y797585D01*
X-9748592Y799741D01*
X-9750210Y800427D01*
X-9751947Y800177D01*
X-9782253Y814018D01*
X-9812916Y827022D01*
X-9813905Y828473D01*
X-9815503Y829202D01*
X-9833513Y857226D01*
X-9852280Y884747D01*
X-9852632Y886976D01*
X-9853277Y887980D01*
X-9858300Y922915D01*
X-9858300Y1051976D01*
X-9838615Y1119015D01*
X-9809225Y1150780D01*
X-9714922Y1222293D01*
X-9627637Y1337395D01*
X-9627638Y1337395D01*
X-9627636Y1337396D01*
X-9574641Y1471781D01*
X-9564500Y1556227D01*
X-9564500Y2088515D01*
X-9574641Y2172961D01*
X-9627636Y2307346D01*
X-9627637Y2307347D01*
X-9627637Y2307348D01*
X-9714922Y2422450D01*
X-9815298Y2498567D01*
X-9856822Y2554760D01*
X-9861373Y2624481D01*
X-9827508Y2685595D01*
X-9815298Y2696175D01*
X-9756538Y2740734D01*
X-9714922Y2772293D01*
X-9627636Y2887396D01*
X-9574641Y3021781D01*
X-9564500Y3106227D01*
X-9564500Y3638515D01*
X-9574641Y3722961D01*
X-9627636Y3857346D01*
X-9627637Y3857347D01*
X-9627637Y3857348D01*
X-9714923Y3972450D01*
X-9819226Y4051547D01*
X-9860749Y4107739D01*
X-9868300Y4150350D01*
X-9868300Y4832244D01*
X-9848615Y4899283D01*
X-9831981Y4919925D01*
X-8677425Y6074481D01*
X-8616102Y6107966D01*
X-8589744Y6110800D01*
X-8307903Y6110800D01*
X-8307900Y6110800D01*
X-8187931Y6142946D01*
X-8187924Y6142951D01*
X-8180423Y6146056D01*
X-8179503Y6143835D01*
X-8130361Y6157001D01*
X-8048050Y6157001D01*
X-8019828Y6161113D01*
X-7977491Y6167280D01*
X-7868653Y6220488D01*
X-7782988Y6306153D01*
X-7729780Y6414991D01*
X-7719500Y6485551D01*
X-7719501Y6679448D01*
X-7729780Y6750009D01*
X-7782988Y6858847D01*
X-7782990Y6858849D01*
X-7782990Y6858850D01*
X-7868652Y6944512D01*
X-7977489Y6997720D01*
X-7995131Y7000290D01*
X-8048051Y7008000D01*
X-8048057Y7008000D01*
X-8130362Y7008000D01*
X-8179497Y7021165D01*
X-8180417Y7018942D01*
X-8187927Y7022053D01*
X-8197766Y7024690D01*
X-8307900Y7054200D01*
X-8898590Y7054200D01*
X-8898592Y7054200D01*
X-8986413Y7030670D01*
X-8986412Y7030669D01*
X-9018556Y7022056D01*
X-9018563Y7022053D01*
X-9080660Y6986202D01*
X-9080660Y6986201D01*
X-9116514Y6965501D01*
X-9126122Y6959953D01*
X-9126121Y6959953D01*
X-10717453Y5368623D01*
X-10717455Y5368620D01*
X-10779554Y5261060D01*
X-10806011Y5162318D01*
X-10806012Y5162315D01*
X-10811700Y5141090D01*
X-10811700Y4150350D01*
X-10831385Y4083311D01*
X-10860774Y4051547D01*
X-10965078Y3972450D01*
X-11052364Y3857348D01*
X-11105360Y3722960D01*
X-11108337Y3698166D01*
X-11115500Y3638515D01*
X-11115500Y3106227D01*
X-11110175Y3061877D01*
X-11105360Y3021783D01*
X-11052364Y2887395D01*
X-10967731Y2775791D01*
X-10965078Y2772293D01*
X-10864702Y2696175D01*
X-10849437Y2675517D01*
X-10831167Y2657472D01*
X-10829020Y2647886D01*
X-10823179Y2639982D01*
X-10821507Y2614355D01*
X-10815891Y2589293D01*
X-10819268Y2580065D01*
X-10818628Y2570261D01*
X-10831075Y2547801D01*
X-10839901Y2523678D01*
X-10850244Y2513207D01*
X-10852493Y2509147D01*
X-10864703Y2498567D01*
X-10944657Y2437936D01*
X-11009968Y2413113D01*
X-11078332Y2427541D01*
X-11118386Y2461815D01*
X-11205633Y2576868D01*
X-11319366Y2663114D01*
X-11319368Y2663115D01*
X-11452154Y2715479D01*
X-11452155Y2715480D01*
X-11452157Y2715480D01*
X-11535598Y2725500D01*
X-12054402Y2725500D01*
X-12137844Y2715480D01*
X-12137845Y2715480D01*
X-12270635Y2663114D01*
X-12384368Y2576868D01*
X-12470614Y2463135D01*
X-12522980Y2330345D01*
X-12522980Y2330344D01*
X-12533000Y2246903D01*
X-12533000Y1653098D01*
X-12522980Y1569657D01*
X-12522980Y1569656D01*
X-12470614Y1436866D01*
X-12404305Y1349425D01*
X-12379482Y1284114D01*
X-12393910Y1215750D01*
X-12443007Y1166039D01*
X-12503109Y1150500D01*
X-13975500Y1150500D01*
X-14042539Y1170185D01*
X-14088294Y1222989D01*
X-14099500Y1274500D01*
X-14099500Y6896250D01*
X-14099274Y6903737D01*
X-14097107Y6939562D01*
X-14083916Y7157641D01*
X-14082111Y7172500D01*
X-14080962Y7178766D01*
X-14036938Y7419005D01*
X-14033355Y7433539D01*
X-14013016Y7498807D01*
X-13958798Y7672798D01*
X-13953496Y7686781D01*
X-13850639Y7915321D01*
X-13843680Y7928579D01*
X-13838669Y7936868D01*
X-13714025Y8143054D01*
X-13705538Y8155350D01*
X-13550966Y8352646D01*
X-13541051Y8363837D01*
X-13363837Y8541051D01*
X-13352646Y8550966D01*
X-13155350Y8705538D01*
X-13143054Y8714025D01*
X-12928579Y8843681D01*
X-12915320Y8850639D01*
X-12804368Y8900574D01*
X-12686781Y8953496D01*
X-12672798Y8958798D01*
X-12433533Y9033357D01*
X-12419005Y9036938D01*
X-12172494Y9082112D01*
X-12157641Y9083916D01*
X-11903736Y9099274D01*
X-11896249Y9099500D01*
X-11852405Y9099500D01*
X-3885486Y9099500D01*
X-3818447Y9079815D01*
G37*
%TD.AperFunction*%
%TA.AperFunction,Conductor*%
G36*
X-366287Y-2383440D02*
G01*
X-355708Y-2395649D01*
X-316868Y-2446866D01*
X-316867Y-2446867D01*
X-259885Y-2490078D01*
X-203132Y-2533115D01*
X-196376Y-2536914D01*
X-147588Y-2586928D01*
X-133584Y-2655380D01*
X-158812Y-2720537D01*
X-196376Y-2753086D01*
X-203132Y-2756884D01*
X-316868Y-2843132D01*
X-403114Y-2956865D01*
X-455480Y-3089655D01*
X-455480Y-3089656D01*
X-465500Y-3173097D01*
X-465500Y-3691902D01*
X-455480Y-3775344D01*
X-455479Y-3775346D01*
X-444859Y-3802277D01*
X-438578Y-3871862D01*
X-470915Y-3933798D01*
X-472533Y-3935446D01*
X-886266Y-4349181D01*
X-947589Y-4382666D01*
X-973947Y-4385500D01*
X-1586053Y-4385500D01*
X-1615494Y-4376855D01*
X-1645480Y-4370332D01*
X-1650496Y-4366577D01*
X-1653092Y-4365815D01*
X-1673734Y-4349181D01*
X-1731981Y-4290934D01*
X-1765466Y-4229611D01*
X-1768300Y-4203253D01*
X-1768300Y-2753003D01*
X-1748615Y-2685964D01*
X-1695811Y-2640209D01*
X-1629516Y-2629888D01*
X-1541146Y-2640500D01*
X-1541144Y-2640500D01*
X-958862Y-2640500D01*
X-958856Y-2640500D01*
X-874410Y-2630359D01*
X-740025Y-2577364D01*
X-624922Y-2490078D01*
X-553314Y-2395649D01*
X-497123Y-2354127D01*
X-427402Y-2349575D01*
X-366287Y-2383440D01*
G37*
%TD.AperFunction*%
%TA.AperFunction,Conductor*%
G36*
X-625197Y5118113D02*
G01*
X-188019Y4680935D01*
X-154534Y4619612D01*
X-151700Y4593254D01*
X-151700Y4102979D01*
X-171385Y4035940D01*
X-200774Y4004176D01*
X-305078Y3925079D01*
X-392364Y3809977D01*
X-445360Y3675589D01*
X-449811Y3638515D01*
X-455500Y3591144D01*
X-455500Y3058856D01*
X-451048Y3021783D01*
X-445360Y2974412D01*
X-392364Y2840024D01*
X-305080Y2724924D01*
X-305078Y2724922D01*
X-216132Y2657472D01*
X-204702Y2648804D01*
X-163179Y2592611D01*
X-158628Y2522890D01*
X-192493Y2461776D01*
X-204702Y2451196D01*
X-305080Y2375077D01*
X-392364Y2259977D01*
X-445360Y2125589D01*
X-449811Y2088515D01*
X-455500Y2041144D01*
X-455500Y1508856D01*
X-451048Y1471783D01*
X-445360Y1424412D01*
X-392364Y1290024D01*
X-305079Y1174922D01*
X-272873Y1150500D01*
X-220775Y1110992D01*
X-218295Y1107637D01*
X-214497Y1105902D01*
X-197706Y1079774D01*
X-179252Y1054801D01*
X-178337Y1049635D01*
X-176723Y1047124D01*
X-171700Y1012189D01*
X-171700Y919098D01*
X-191385Y852059D01*
X-244189Y806304D01*
X-263144Y799448D01*
X-269993Y797585D01*
X-372765Y752207D01*
X-452206Y672766D01*
X-497585Y569994D01*
X-497585Y569992D01*
X-500500Y544869D01*
X-500500Y-544856D01*
X-500498Y-544882D01*
X-497587Y-569987D01*
X-497585Y-569991D01*
X-452207Y-672764D01*
X-452206Y-672765D01*
X-372765Y-752206D01*
X-269991Y-797585D01*
X-244865Y-800500D01*
X-174500Y-800499D01*
X-165816Y-803049D01*
X-156853Y-801761D01*
X-132814Y-812739D01*
X-107462Y-820183D01*
X-101534Y-827024D01*
X-93297Y-830786D01*
X-79011Y-853016D01*
X-61706Y-872986D01*
X-59419Y-883502D01*
X-55523Y-889564D01*
X-50500Y-924499D01*
X-50500Y-1037300D01*
X-70185Y-1104339D01*
X-122989Y-1150094D01*
X-129009Y-1152654D01*
X-203131Y-1181884D01*
X-203135Y-1181886D01*
X-316868Y-1268133D01*
X-380353Y-1351850D01*
X-436545Y-1393373D01*
X-506266Y-1397924D01*
X-567380Y-1364059D01*
X-577959Y-1351850D01*
X-624921Y-1289922D01*
X-740024Y-1202636D01*
X-874412Y-1149640D01*
X-917758Y-1144435D01*
X-958856Y-1139500D01*
X-958862Y-1139500D01*
X-1172054Y-1139500D01*
X-1239093Y-1119815D01*
X-1259735Y-1103181D01*
X-2328181Y-34734D01*
X-2361666Y26589D01*
X-2364500Y52947D01*
X-2364500Y1308097D01*
X-2364500Y1308102D01*
X-2375123Y1396564D01*
X-2430639Y1537342D01*
X-2430640Y1537343D01*
X-2430640Y1537344D01*
X-2522078Y1657923D01*
X-2642657Y1749361D01*
X-2783439Y1804878D01*
X-2829074Y1810358D01*
X-2871898Y1815500D01*
X-2871903Y1815500D01*
X-2963119Y1815500D01*
X-3030158Y1835185D01*
X-3050800Y1851819D01*
X-3853026Y2654045D01*
X-3886511Y2715368D01*
X-3889345Y2741726D01*
X-3889345Y3058182D01*
X-3895116Y3106234D01*
X-3899366Y3141625D01*
X-3951730Y3274411D01*
X-3951732Y3274414D01*
X-4037978Y3388147D01*
X-4151711Y3474393D01*
X-4158467Y3478191D01*
X-4207256Y3528204D01*
X-4221262Y3596655D01*
X-4196037Y3661813D01*
X-4158467Y3694367D01*
X-4151719Y3698162D01*
X-4151713Y3698164D01*
X-4037978Y3784412D01*
X-3951730Y3898147D01*
X-3899366Y4030933D01*
X-3889345Y4114377D01*
X-3889345Y4625933D01*
X-3869660Y4692972D01*
X-3816856Y4738727D01*
X-3747698Y4748671D01*
X-3691035Y4725200D01*
X-3647984Y4692972D01*
X-3647332Y4692484D01*
X-3647329Y4692482D01*
X-3616369Y4680935D01*
X-3512483Y4642188D01*
X-3452873Y4635779D01*
X-2807128Y4635780D01*
X-2747517Y4642188D01*
X-2612669Y4692483D01*
X-2497454Y4778733D01*
X-2467696Y4818486D01*
X-2411764Y4860356D01*
X-2342072Y4865340D01*
X-2280749Y4831856D01*
X-2269164Y4818485D01*
X-2239407Y4778735D01*
X-2239404Y4778732D01*
X-2124195Y4692486D01*
X-2124188Y4692482D01*
X-2093228Y4680935D01*
X-1989342Y4642188D01*
X-1929732Y4635779D01*
X-1283987Y4635780D01*
X-1224376Y4642188D01*
X-1089528Y4692483D01*
X-974313Y4778733D01*
X-888063Y4893948D01*
X-837768Y5028796D01*
X-836167Y5043689D01*
X-809430Y5108237D01*
X-752038Y5148086D01*
X-682213Y5150580D01*
X-625197Y5118113D01*
G37*
%TD.AperFunction*%
%TA.AperFunction,Conductor*%
G36*
X-5614297Y2746766D02*
G01*
X-5607819Y2740734D01*
X-5475291Y2608206D01*
X-5441806Y2546883D01*
X-5439857Y2535311D01*
X-5430325Y2455936D01*
X-5430325Y2455935D01*
X-5430324Y2455933D01*
X-5380799Y2330345D01*
X-5377959Y2323145D01*
X-5291713Y2209412D01*
X-5181175Y2125589D01*
X-5177977Y2123164D01*
X-5045191Y2070800D01*
X-4961747Y2060779D01*
X-4645292Y2060779D01*
X-4578253Y2041094D01*
X-4557611Y2024460D01*
X-4148707Y1615556D01*
X-4115222Y1554233D01*
X-4120206Y1484541D01*
X-4121020Y1482420D01*
X-4125214Y1471783D01*
X-4154878Y1396562D01*
X-4160538Y1349425D01*
X-4165500Y1308102D01*
X-4165500Y1308097D01*
X-4165500Y188799D01*
X-4185185Y121760D01*
X-4237989Y76005D01*
X-4307147Y66061D01*
X-4370703Y95086D01*
X-4377181Y101118D01*
X-5911981Y1635918D01*
X-5926685Y1662846D01*
X-5943277Y1688664D01*
X-5944169Y1694865D01*
X-5945466Y1697241D01*
X-5948300Y1723599D01*
X-5948300Y1966438D01*
X-5928615Y2033477D01*
X-5924082Y2040056D01*
X-5867207Y2117118D01*
X-5829805Y2224006D01*
X-5822354Y2245299D01*
X-5822354Y2245301D01*
X-5819500Y2275731D01*
X-5819500Y2653053D01*
X-5799815Y2720092D01*
X-5747011Y2765847D01*
X-5677853Y2775791D01*
X-5614297Y2746766D01*
G37*
%TD.AperFunction*%
%TA.AperFunction,Conductor*%
G36*
X1903736Y9099274D02*
G01*
X2157638Y9083916D01*
X2172495Y9082112D01*
X2419000Y9036939D01*
X2433536Y9033356D01*
X2672791Y8958800D01*
X2686788Y8953492D01*
X2915319Y8850639D01*
X2928578Y8843680D01*
X3035808Y8778857D01*
X3143045Y8714030D01*
X3155356Y8705532D01*
X3255055Y8627423D01*
X3352636Y8550973D01*
X3363844Y8541043D01*
X3541042Y8363845D01*
X3550972Y8352637D01*
X3681244Y8186357D01*
X3705527Y8155363D01*
X3714033Y8143040D01*
X3843679Y7928579D01*
X3850638Y7915320D01*
X3953491Y7686789D01*
X3958800Y7672789D01*
X4033354Y7433539D01*
X4036938Y7418999D01*
X4082110Y7172500D01*
X4083915Y7157636D01*
X4099274Y6903737D01*
X4099500Y6896250D01*
X4099500Y1274500D01*
X4079815Y1207461D01*
X4027011Y1161706D01*
X3975500Y1150500D01*
X1260437Y1150500D01*
X1181635Y1129385D01*
X1111785Y1131048D01*
X1053923Y1170211D01*
X1026419Y1234439D01*
X1034188Y1294650D01*
X1051045Y1337396D01*
X1085359Y1424410D01*
X1095500Y1508856D01*
X1095500Y2041144D01*
X1085359Y2125590D01*
X1032364Y2259975D01*
X1032363Y2259976D01*
X1032363Y2259977D01*
X945078Y2375079D01*
X844702Y2451196D01*
X803178Y2507389D01*
X798627Y2577110D01*
X832492Y2638224D01*
X844702Y2648804D01*
X863573Y2663114D01*
X945078Y2724922D01*
X1032364Y2840025D01*
X1085359Y2974410D01*
X1095500Y3058856D01*
X1095500Y3591144D01*
X1085359Y3675590D01*
X1032364Y3809975D01*
X1032363Y3809976D01*
X1032363Y3809977D01*
X945077Y3925079D01*
X840774Y4004176D01*
X799251Y4060368D01*
X791700Y4102979D01*
X791700Y4902099D01*
X786923Y4919925D01*
X768167Y4989924D01*
X759554Y5022070D01*
X703119Y5119818D01*
X697454Y5129630D01*
X609630Y5217454D01*
X-784431Y6611516D01*
X-817916Y6672839D01*
X-820750Y6699197D01*
X-820750Y7119150D01*
X-820751Y7119156D01*
X-824239Y7151602D01*
X-827158Y7178762D01*
X-848391Y7235690D01*
X-877452Y7313608D01*
X-877456Y7313615D01*
X-963702Y7428824D01*
X-963705Y7428827D01*
X-1032791Y7480545D01*
X-1074662Y7536479D01*
X-1079646Y7606170D01*
X-1046160Y7667493D01*
X-1033415Y7678607D01*
X-990433Y7711201D01*
X-903147Y7826304D01*
X-850152Y7960689D01*
X-840011Y8045135D01*
X-840011Y8627423D01*
X-850152Y8711869D01*
X-903147Y8846254D01*
X-944341Y8900576D01*
X-969163Y8965886D01*
X-954735Y9034250D01*
X-905638Y9083961D01*
X-845536Y9099500D01*
X1852405Y9099500D01*
X1896249Y9099500D01*
X1903736Y9099274D01*
G37*
%TD.AperFunction*%
%TD*%
M02*
