%TF.GenerationSoftware,KiCad,Pcbnew,9.0.7-9.0.7~ubuntu24.04.1*%
%TF.CreationDate,2026-01-06T12:19:45-05:00*%
%TF.ProjectId,Wideband-LNA,57696465-6261-46e6-942d-4c4e412e6b69,rev?*%
%TF.SameCoordinates,Original*%
%TF.FileFunction,Soldermask,Bot*%
%TF.FilePolarity,Negative*%
%FSLAX46Y46*%
G04 Gerber Fmt 4.6, Leading zero omitted, Abs format (unit mm)*
G04 Created by KiCad (PCBNEW 9.0.7-9.0.7~ubuntu24.04.1) date 2026-01-06 12:19:45*
%MOMM*%
%LPD*%
G01*
G04 APERTURE LIST*
%ADD10C,3.800000*%
G04 APERTURE END LIST*
D10*
%TO.C,H3*%
X1900000Y-6900000D03*
%TD*%
%TO.C,H2*%
X1900000Y6900000D03*
%TD*%
%TO.C,H1*%
X-11900000Y6900000D03*
%TD*%
G36*
X-2381961Y-2644685D02*
G01*
X-2336206Y-2697489D01*
X-2325000Y-2749000D01*
X-2325000Y-8851214D01*
X-2344685Y-8918253D01*
X-2397489Y-8964008D01*
X-2448785Y-8975214D01*
X-7960785Y-8984784D01*
X-8027858Y-8965216D01*
X-8073705Y-8912491D01*
X-8085000Y-8860784D01*
X-8085000Y-6875000D01*
X-6961000Y-6875000D01*
X-6335000Y-6875000D01*
X-5337000Y-6875000D01*
X-3835000Y-6875000D01*
X-3835000Y-5373000D01*
X-5337000Y-5373000D01*
X-5337000Y-6875000D01*
X-6335000Y-6875000D01*
X-6335000Y-5373000D01*
X-6961000Y-5373000D01*
X-6961000Y-6875000D01*
X-8085000Y-6875000D01*
X-8085000Y-4375000D01*
X-5337000Y-4375000D01*
X-3835000Y-4375000D01*
X-3835000Y-3749000D01*
X-5337000Y-3749000D01*
X-5337000Y-4375000D01*
X-8085000Y-4375000D01*
X-8085000Y-2749000D01*
X-8065315Y-2681961D01*
X-8012511Y-2636206D01*
X-7961000Y-2625000D01*
X-2449000Y-2625000D01*
X-2381961Y-2644685D01*
G37*
G36*
X-11754583Y3160315D02*
G01*
X-11708828Y3107511D01*
X-11697622Y3056000D01*
X-11697622Y1264000D01*
X-11717307Y1196961D01*
X-11770111Y1151206D01*
X-11821622Y1140000D01*
X-13984228Y1140000D01*
X-14051267Y1159685D01*
X-14097022Y1212489D01*
X-14108227Y1263392D01*
X-14117011Y3055392D01*
X-14097655Y3122527D01*
X-14045076Y3168541D01*
X-13993012Y3180000D01*
X-11821622Y3180000D01*
X-11754583Y3160315D01*
G37*
G36*
X-11296961Y-1169685D02*
G01*
X-11251206Y-1222489D01*
X-11240000Y-1274000D01*
X-11240000Y-3116000D01*
X-11259685Y-3183039D01*
X-11312489Y-3228794D01*
X-11364000Y-3240000D01*
X-13956591Y-3240000D01*
X-14023630Y-3220315D01*
X-14069385Y-3167511D01*
X-14080590Y-3116593D01*
X-14089404Y-1274593D01*
X-14070040Y-1207460D01*
X-14017456Y-1161453D01*
X-13965405Y-1150000D01*
X-11364000Y-1150000D01*
X-11296961Y-1169685D01*
G37*
G36*
X4005976Y-1169685D02*
G01*
X4051731Y-1222489D01*
X4062937Y-1274000D01*
X4062937Y-3066000D01*
X4043252Y-3133039D01*
X3990448Y-3178794D01*
X3938937Y-3190000D01*
X2796331Y-3190000D01*
X2729292Y-3170315D01*
X2683537Y-3117511D01*
X2672332Y-3066608D01*
X2663548Y-1274608D01*
X2682904Y-1207473D01*
X2735483Y-1161459D01*
X2787547Y-1150000D01*
X3938937Y-1150000D01*
X4005976Y-1169685D01*
G37*
G36*
X3999264Y2970315D02*
G01*
X4045019Y2917511D01*
X4056225Y2866000D01*
X4056225Y1284000D01*
X4036540Y1216961D01*
X3983736Y1171206D01*
X3932225Y1160000D01*
X2449549Y1160000D01*
X2382510Y1179685D01*
X2336755Y1232489D01*
X2325551Y1283322D01*
X2316906Y2865322D01*
X2336224Y2932468D01*
X2388777Y2978511D01*
X2440904Y2990000D01*
X3932225Y2990000D01*
X3999264Y2970315D01*
G37*
M02*
